solid OBJECT
  facet normal 2.5600928121195882e-08 0.99589320349295718 0.090535778764722283
    outer loop
      vertex 22 13.497946739196777 5.4774127006530762
      vertex 18.255598068237305 13.114855766296387 9.6914129257202148
      vertex 20 13 10.954825401306152
    endloop
  endfacet
  facet normal 9.6390259668695896e-08 0.99589319732905801 0.090535846567515746
    outer loop
      vertex 22 13.497946739196777 5.4774127006530762
      vertex 14.237980842590332 13.252812385559082 8.1738958358764648
      vertex 16.314590454101563 13.200018882751465 8.7546215057373047
    endloop
  endfacet
  facet normal 8.9935570322305454e-08 0.99589319833869794 0.090535835461493894
    outer loop
      vertex 22 13.497946739196777 5.4774127006530762
      vertex 16.314590454101563 13.200018882751465 8.7546215057373047
      vertex 18.255598068237305 13.114855766296387 9.6914129257202148
    endloop
  endfacet
  facet normal 0 0.99589320433579387 0.090535769493525958
    outer loop
      vertex 16 13.995893478393555 0
      vertex 22 13.497946739196777 5.4774127006530762
      vertex 24 13.995893478393555 0
    endloop
  endfacet
  facet normal 0 0.99589320891041289 0.090535719172716342
    outer loop
      vertex 8 13.995893478393555 0
      vertex 12.091033935546875 13.271576881408691 7.9674849510192871
      vertex 16 13.995893478393555 0
    endloop
  endfacet
  facet normal 3.1989889351268876e-08 0.99589320749531551 0.090535734738784443
    outer loop
      vertex 22 13.497946739196777 5.4774127006530762
      vertex 16 13.995893478393555 0
      vertex 12.091033935546875 13.271576881408691 7.9674849510192871
    endloop
  endfacet
  facet normal -3.3986643139933457e-08 0.99589323116748485 0.090535474344510425
    outer loop
      vertex 12.091033935546875 13.271576881408691 7.9674849510192871
      vertex 14.237980842590332 13.252812385559082 8.1738958358764648
      vertex 22 13.497946739196777 5.4774127006530762
    endloop
  endfacet
  facet normal -2.061613477747357e-08 0.99589322747429732 0.090535514969689049
    outer loop
      vertex 2.6666667461395264 13.331964492797852 7.3032169342041016
      vertex 7.8364171981811523 13.205101013183594 8.6987199783325195
      vertex 9.9412260055541992 13.255722999572754 8.1418771743774414
    endloop
  endfacet
  facet normal 8.7802415770156162e-08 0.99589320722642893 0.0905357376964991
    outer loop
      vertex 2.6666667461395264 13.331964492797852 7.3032169342041016
      vertex 4 13 10.954825401306152
      vertex 5.8402142524719238 13.120001792907715 9.6348037719726562
    endloop
  endfacet
  facet normal -1.7941376600233039e-07 0.99589317443276071 0.090536098426024267
    outer loop
      vertex 2.6666667461395264 13.331964492797852 7.3032169342041016
      vertex 5.8402142524719238 13.120001792907715 9.6348037719726562
      vertex 7.8364171981811523 13.205101013183594 8.6987199783325195
    endloop
  endfacet
  facet normal -2.1690263018101973e-08 0.99589320790623737 0.090535730218643834
    outer loop
      vertex 12.091033935546875 13.271576881408691 7.9674849510192871
      vertex 8 13.995893478393555 0
      vertex 1.3333333730697632 13.663928985595703 3.6516084671020508
    endloop
  endfacet
  facet normal -5.2407995153988608e-08 0.99589320261041114 0.090535788472713846
    outer loop
      vertex 2.6666667461395264 13.331964492797852 7.3032169342041016
      vertex 9.9412260055541992 13.255722999572754 8.1418771743774414
      vertex 1.3333333730697632 13.663928985595703 3.6516084671020508
    endloop
  endfacet
  facet normal 0 0.99589320433579387 0.090535769493525958
    outer loop
      vertex 8 13.995893478393555 0
      vertex 0 13.995893478393555 0
      vertex 1.3333333730697632 13.663928985595703 3.6516084671020508
    endloop
  endfacet
  facet normal -2.1428422957410169e-08 0.99589320796508385 0.090535729571334198
    outer loop
      vertex 9.9412260055541992 13.255722999572754 8.1418771743774414
      vertex 12.091033935546875 13.271576881408691 7.9674849510192871
      vertex 1.3333333730697632 13.663928985595703 3.6516084671020508
    endloop
  endfacet
  facet normal 0.93934021196005768 -0 0.34298683093499943
    outer loop
      vertex 22 10.497946739196777 5.4774127006530762
      vertex 22 13.497946739196777 5.4774127006530762
      vertex 20 10.995893478393555 10.954825401306152
    endloop
  endfacet
  facet normal 0.93934021196005768 0 0.34298683093499943
    outer loop
      vertex 20 13 10.954825401306152
      vertex 20 10.995893478393555 10.954825401306152
      vertex 22 13.497946739196777 5.4774127006530762
    endloop
  endfacet
  facet normal 0.93934021196005768 -0 0.34298683093499943
    outer loop
      vertex 22 10.497946739196777 5.4774127006530762
      vertex 24 10 0
      vertex 24 13.995893478393555 0
    endloop
  endfacet
  facet normal 0.93934021196005768 0 0.34298683093499943
    outer loop
      vertex 22 13.497946739196777 5.4774127006530762
      vertex 22 10.497946739196777 5.4774127006530762
      vertex 24 13.995893478393555 0
    endloop
  endfacet
  facet normal -0 0 -1
    outer loop
      vertex 21.600000381469727 10 0
      vertex 24 13.995893478393555 0
      vertex 24 10 0
    endloop
  endfacet
  facet normal 0 -0 -1
    outer loop
      vertex 24 13.995893478393555 0
      vertex 21.600000381469727 10 0
      vertex 19.200000762939453 10 0
    endloop
  endfacet
  facet normal 0 -0 -1
    outer loop
      vertex 24 13.995893478393555 0
      vertex 19.200000762939453 10 0
      vertex 16 13.995893478393555 0
    endloop
  endfacet
  facet normal 0 0 -1
    outer loop
      vertex 16 13.995893478393555 0
      vertex 16.799999237060547 10 0
      vertex 14.399999618530273 10 0
    endloop
  endfacet
  facet normal -0 0 -1
    outer loop
      vertex 16.799999237060547 10 0
      vertex 16 13.995893478393555 0
      vertex 19.200000762939453 10 0
    endloop
  endfacet
  facet normal 0 -0 -1
    outer loop
      vertex 14.399999618530273 10 0
      vertex 12 10 0
      vertex 16 13.995893478393555 0
    endloop
  endfacet
  facet normal 0 0 -1
    outer loop
      vertex 8 13.995893478393555 0
      vertex 12 10 0
      vertex 9.6000003814697266 10 0
    endloop
  endfacet
  facet normal -0 0 -1
    outer loop
      vertex 7.1999998092651367 10 0
      vertex 8 13.995893478393555 0
      vertex 9.6000003814697266 10 0
    endloop
  endfacet
  facet normal 0 0 -1
    outer loop
      vertex 8 13.995893478393555 0
      vertex 16 13.995893478393555 0
      vertex 12 10 0
    endloop
  endfacet
  facet normal 0 -0 -1
    outer loop
      vertex 8 13.995893478393555 0
      vertex 4.8000001907348633 10 0
      vertex 2.4000000953674316 10 0
    endloop
  endfacet
  facet normal 0 -0 -1
    outer loop
      vertex 8 13.995893478393555 0
      vertex 2.4000000953674316 10 0
      vertex 0 13.995893478393555 0
    endloop
  endfacet
  facet normal 0 -0 -1
    outer loop
      vertex 8 13.995893478393555 0
      vertex 7.1999998092651367 10 0
      vertex 4.8000001907348633 10 0
    endloop
  endfacet
  facet normal 0 0 -1
    outer loop
      vertex 0 13.995893478393555 0
      vertex 2.4000000953674316 10 0
      vertex 0 10 0
    endloop
  endfacet
  facet normal -0.93934020866678336 0 0.34298683995431084
    outer loop
      vertex 1.3333333730697632 10.331964492797852 3.6516084671020508
      vertex 0 10 0
      vertex 0 7.9986310005187988 0
    endloop
  endfacet
  facet normal -0.93934021196005768 0 0.34298683093499943
    outer loop
      vertex 2 3.4979469776153564 5.4774127006530762
      vertex 0 5.9972624778747559 0
      vertex 0 3.9958934783935547 0
    endloop
  endfacet
  facet normal -0.93934020866678347 0 0.3429868399543109
    outer loop
      vertex 0 5.9972624778747559 0
      vertex 1.3333333730697632 10.331964492797852 3.6516084671020508
      vertex 0 7.9986310005187988 0
    endloop
  endfacet
  facet normal -0.93934021854660632 0 0.34298681289637645
    outer loop
      vertex 4 3.0000002384185791 10.954825401306152
      vertex 4 10.995893478393555 10.954825401306152
      vertex 2.6666667461395264 10.663928985595703 7.3032169342041016
    endloop
  endfacet
  facet normal -0.93934020890105119 7.9984344900261418e-09 0.34298683931271984
    outer loop
      vertex 1.3333333730697632 10.331964492797852 3.6516084671020508
      vertex 2 3.4979469776153564 5.4774127006530762
      vertex 2.6666667461395264 10.663928985595703 7.3032169342041016
    endloop
  endfacet
  facet normal -0.93934021166184278 1.0181726241759926e-08 0.34298683175172223
    outer loop
      vertex 4 3.0000002384185791 10.954825401306152
      vertex 2.6666667461395264 10.663928985595703 7.3032169342041016
      vertex 2 3.4979469776153564 5.4774127006530762
    endloop
  endfacet
  facet normal -0.9393402110456488 6.2200585961915481e-09 0.34298683343929698
    outer loop
      vertex 0 5.9972624778747559 0
      vertex 2 3.4979469776153564 5.4774127006530762
      vertex 1.3333333730697632 10.331964492797852 3.6516084671020508
    endloop
  endfacet
  facet normal 0.58286937188392396 0 0.81256587137267833
    outer loop
      vertex 5.8402142524719238 13.120001792907715 9.6348037719726562
      vertex 4 13 10.954825401306152
      vertex 4 11.997946739196777 10.954825401306152
    endloop
  endfacet
  facet normal 0.59044631587607321 -0.019151216057241342 0.80684966319129192
    outer loop
      vertex 5.393218994140625 10.900839805603027 9.9092378616333008
      vertex 5.8402142524719238 13.120001792907715 9.6348037719726562
      vertex 4 11.997946739196777 10.954825401306152
    endloop
  endfacet
  facet normal 0.42521143233685826 -0.02108589116422499 0.90484839780144821
    outer loop
      vertex 7.8364171981811523 13.205101013183594 8.6987199783325195
      vertex 5.8402142524719238 13.120001792907715 9.6348037719726562
      vertex 6.9222688674926758 10.824803352355957 9.0728330612182617
    endloop
  endfacet
  facet normal 0.25612109319757537 -0.017973134135492744 0.96647760039673269
    outer loop
      vertex 9.9412260055541992 13.255722999572754 8.1418771743774414
      vertex 7.8364171981811523 13.205101013183594 8.6987199783325195
      vertex 8.5557126998901367 10.769346237182617 8.4628067016601562
    endloop
  endfacet
  facet normal 0.60024734563386228 0 0.799814431014784
    outer loop
      vertex 5.393218994140625 10.900839805603027 9.9092378616333008
      vertex 4 11.997946739196777 10.954825401306152
      vertex 4 10.995893478393555 10.954825401306152
    endloop
  endfacet
  facet normal 0.35020885428159487 0.012706826130333476 0.93658544455509563
    outer loop
      vertex 6.9222688674926758 10.824803352355957 9.0728330612182617
      vertex 8.5557126998901367 10.769346237182617 8.4628067016601562
      vertex 7.8364171981811523 13.205101013183594 8.6987199783325195
    endloop
  endfacet
  facet normal 0.48031835771041698 0.011708509066955067 0.87701606944331234
    outer loop
      vertex 5.8402142524719238 13.120001792907715 9.6348037719726562
      vertex 5.393218994140625 10.900839805603027 9.9092378616333008
      vertex 6.9222688674926758 10.824803352355957 9.0728330612182617
    endloop
  endfacet
  facet normal 0.21290138998519842 0.0074746971879516904 0.97704509980057663
    outer loop
      vertex 10.259969711303711 10.73560905456543 8.0917015075683594
      vertex 9.9412260055541992 13.255722999572754 8.1418771743774414
      vertex 8.5557126998901367 10.769346237182617 8.4628067016601562
    endloop
  endfacet
  facet normal 0.080920982331321112 -0.0096089856849786211 0.99667420053528022
    outer loop
      vertex 10.259969711303711 10.73560905456543 8.0917015075683594
      vertex 12.091033935546875 13.271576881408691 7.9674849510192871
      vertex 9.9412260055541992 13.255722999572754 8.1418771743774414
    endloop
  endfacet
  facet normal -0.095808851437210824 -0.01354700490181438 0.99530756183426672
    outer loop
      vertex 13.740030288696289 10.73560905456543 8.0917015075683594
      vertex 14.237980842590332 13.252812385559082 8.1738958358764648
      vertex 12.091033935546875 13.271576881408691 7.9674849510192871
    endloop
  endfacet
  facet normal -0.43526083238500063 -0.019258864732613172 0.90009838568943512
    outer loop
      vertex 17.077732086181641 10.824803352355957 9.0728330612182617
      vertex 18.255598068237305 13.114855766296387 9.6914129257202148
      vertex 16.314590454101563 13.200018882751465 8.7546215057373047
    endloop
  endfacet
  facet normal -0.58710750778801546 -0.013493759426584448 0.80939649910009059
    outer loop
      vertex 18.606781005859375 10.900839805603027 9.9092378616333008
      vertex 20 13 10.954825401306152
      vertex 18.255598068237305 13.114855766296387 9.6914129257202148
    endloop
  endfacet
  facet normal -0.26971767326563267 -0.019010818554098256 0.96275176733469403
    outer loop
      vertex 15.444287300109863 10.769346237182617 8.4628067016601562
      vertex 16.314590454101563 13.200018882751465 8.7546215057373047
      vertex 14.237980842590332 13.252812385559082 8.1738958358764648
    endloop
  endfacet
  facet normal -0.071415456910194519 0.0024192722388514782 0.99744372254084723
    outer loop
      vertex 12 10.724286079406738 7.9671454429626465
      vertex 13.740030288696289 10.73560905456543 8.0917015075683594
      vertex 12.091033935546875 13.271576881408691 7.9674849510192871
    endloop
  endfacet
  facet normal -0.21294815290817665 0.010222840599506082 0.9770100192439547
    outer loop
      vertex 13.740030288696289 10.73560905456543 8.0917015075683594
      vertex 15.444287300109863 10.769346237182617 8.4628067016601562
      vertex 14.237980842590332 13.252812385559082 8.1738958358764648
    endloop
  endfacet
  facet normal -0.35021491170274455 0.012953324105610753 0.93657980280147723
    outer loop
      vertex 16.314590454101563 13.200018882751465 8.7546215057373047
      vertex 15.444287300109863 10.769346237182617 8.4628067016601562
      vertex 17.077732086181641 10.824803352355957 9.0728330612182617
    endloop
  endfacet
  facet normal -0.48026581588972589 0.010110769832880055 0.87706471735052849
    outer loop
      vertex 17.077732086181641 10.824803352355957 9.0728330612182617
      vertex 18.606781005859375 10.900839805603027 9.9092378616333008
      vertex 18.255598068237305 13.114855766296387 9.6914129257202148
    endloop
  endfacet
  facet normal -0.60024734563386228 0 0.799814431014784
    outer loop
      vertex 18.606781005859375 10.900839805603027 9.9092378616333008
      vertex 20 10.995893478393555 10.954825401306152
      vertex 20 13 10.954825401306152
    endloop
  endfacet
  facet normal 0.071382369410957394 -0.0026839726209632146 0.99744541385894769
    outer loop
      vertex 10.259969711303711 10.73560905456543 8.0917015075683594
      vertex 12 10.724286079406738 7.9671454429626465
      vertex 12.091033935546875 13.271576881408691 7.9674849510192871
    endloop
  endfacet
  facet normal 1.2704069545660345e-08 -0.99589320719685159 0.090535738021890313
    outer loop
      vertex 2 0.49794659018516541 5.4774127006530762
      vertex 5.7444014549255371 0.88103753328323364 9.6914129257202148
      vertex 4 0.99589318037033081 10.954825401306152
    endloop
  endfacet
  facet normal -2.3300681939615179e-08 -0.99589320141259152 0.090535801648735106
    outer loop
      vertex 2 0.49794659018516541 5.4774127006530762
      vertex 9.762019157409668 0.74308139085769653 8.1738958358764648
      vertex 7.6854090690612793 0.79587471485137939 8.7546215057373047
    endloop
  endfacet
  facet normal 1.4701617326367623e-08 -0.99589320735688791 0.090535736261493541
    outer loop
      vertex 2 0.49794659018516541 5.4774127006530762
      vertex 7.6854090690612793 0.79587471485137939 8.7546215057373047
      vertex 5.7444014549255371 0.88103753328323364 9.6914129257202148
    endloop
  endfacet
  facet normal 0 -0.99589320677860727 0.090535742622579934
    outer loop
      vertex 8 0 0
      vertex 2 0.49794659018516541 5.4774127006530762
      vertex 0 0 0
    endloop
  endfacet
  facet normal 0 -0.99589320689517791 0.09053574134030315
    outer loop
      vertex 16 0 0
      vertex 11.908966064453125 0.72431677579879761 7.9674849510192871
      vertex 8 0 0
    endloop
  endfacet
  facet normal -8.1516757243448852e-10 -0.99589320685911831 0.090535741736958289
    outer loop
      vertex 2 0.49794659018516541 5.4774127006530762
      vertex 8 0 0
      vertex 11.908966064453125 0.72431677579879761 7.9674849510192871
    endloop
  endfacet
  facet normal 3.1085000354614208e-09 -0.99589320826691974 0.090535726251140605
    outer loop
      vertex 11.908966064453125 0.72431677579879761 7.9674849510192871
      vertex 9.762019157409668 0.74308139085769653 8.1738958358764648
      vertex 2 0.49794659018516541 5.4774127006530762
    endloop
  endfacet
  facet normal -4.9240609980430317e-09 -0.99589320915841606 0.090535716444680198
    outer loop
      vertex 21.333333969116211 0.6639288067817688 7.3032169342041016
      vertex 16.163581848144531 0.79079270362854004 8.6987199783325195
      vertex 14.058773994445801 0.74017065763473511 8.1418771743774414
    endloop
  endfacet
  facet normal -1.8197877022511805e-08 -0.99589320786628199 0.090535730658154109
    outer loop
      vertex 21.333333969116211 0.6639288067817688 7.3032169342041016
      vertex 20 0.99589318037033081 10.954825401306152
      vertex 18.159786224365234 0.87589126825332642 9.6348037719726562
    endloop
  endfacet
  facet normal 8.9007748747231943e-09 -0.99589320454065178 0.090535767240088549
    outer loop
      vertex 21.333333969116211 0.6639288067817688 7.3032169342041016
      vertex 18.159786224365234 0.87589126825332642 9.6348037719726562
      vertex 16.163581848144531 0.79079270362854004 8.6987199783325195
    endloop
  endfacet
  facet normal 1.7109564793498878e-09 -0.99589320681596727 0.090535742211620446
    outer loop
      vertex 11.908966064453125 0.72431677579879761 7.9674849510192871
      vertex 16 0 0
      vertex 22.666666030883789 0.3319644033908844 3.6516084671020508
    endloop
  endfacet
  facet normal -1.6377496162169408e-09 -0.9958932065882441 0.090535744716575592
    outer loop
      vertex 21.333333969116211 0.6639288067817688 7.3032169342041016
      vertex 14.058773994445801 0.74017065763473511 8.1418771743774414
      vertex 22.666666030883789 0.3319644033908844 3.6516084671020508
    endloop
  endfacet
  facet normal 0 -0.99589320653432589 0.090535745309674537
    outer loop
      vertex 16 0 0
      vertex 24 0 0
      vertex 22.666666030883789 0.3319644033908844 3.6516084671020508
    endloop
  endfacet
  facet normal 1.7252161786224763e-08 -0.99589320332321263 0.090535780631912102
    outer loop
      vertex 14.058773994445801 0.74017065763473511 8.1418771743774414
      vertex 11.908966064453125 0.72431677579879761 7.9674849510192871
      vertex 22.666666030883789 0.3319644033908844 3.6516084671020508
    endloop
  endfacet
  facet normal 0.93934021196005768 0 0.34298683093499943
    outer loop
      vertex 20 3.0000002384185791 10.954825401306152
      vertex 22 10.497946739196777 5.4774127006530762
      vertex 20 10.995893478393555 10.954825401306152
    endloop
  endfacet
  facet normal 0.93934015551936423 1.2797494445706781e-07 0.34298698550942108
    outer loop
      vertex 22 10.497946739196777 5.4774127006530762
      vertex 20 3.0000002384185791 10.954825401306152
      vertex 21.333333969116211 3.3319647312164307 7.3032169342041016
    endloop
  endfacet
  facet normal 0.93934031734480483 0 0.34298654231698539
    outer loop
      vertex 21.333333969116211 3.3319647312164307 7.3032169342041016
      vertex 22.666666030883789 3.6639289855957031 3.6516084671020508
      vertex 22 10.497946739196777 5.4774127006530762
    endloop
  endfacet
  facet normal 0.93934019732950857 -9.9520933353626756e-08 0.3429868710037598
    outer loop
      vertex 22 10.497946739196777 5.4774127006530762
      vertex 22.666666030883789 3.6639289855957031 3.6516084671020508
      vertex 24 7.9986310005187988 0
    endloop
  endfacet
  facet normal 0.93934015926765957 -0 0.34298697524396998
    outer loop
      vertex 24 3.9958934783935547 0
      vertex 24 5.9972624778747559 0
      vertex 22.666666030883789 3.6639289855957031 3.6516084671020508
    endloop
  endfacet
  facet normal 0.93934015926765968 0 0.34298697524397004
    outer loop
      vertex 24 7.9986310005187988 0
      vertex 22.666666030883789 3.6639289855957031 3.6516084671020508
      vertex 24 5.9972624778747559 0
    endloop
  endfacet
  facet normal 0.93934021196005768 -0 0.34298683093499943
    outer loop
      vertex 24 10 0
      vertex 22 10.497946739196777 5.4774127006530762
      vertex 24 7.9986310005187988 0
    endloop
  endfacet
  facet normal 0 -0 -1
    outer loop
      vertex 17.142856597900391 8.284541130065918 0
      vertex 17.142856597900391 9.1422700881958008 0
      vertex 20.571428298950195 9.1422700881958008 0
    endloop
  endfacet
  facet normal 0 0 -1
    outer loop
      vertex 17.142856597900391 8.284541130065918 0
      vertex 20.571428298950195 9.1422700881958008 0
      vertex 20.571428298950195 8.284541130065918 0
    endloop
  endfacet
  facet normal 0 -0 -1
    outer loop
      vertex 17.142856597900391 7.426811695098877 0
      vertex 17.142856597900391 8.284541130065918 0
      vertex 20.571428298950195 8.284541130065918 0
    endloop
  endfacet
  facet normal 0 -0 -1
    outer loop
      vertex 17.142856597900391 7.426811695098877 0
      vertex 20.571428298950195 8.284541130065918 0
      vertex 20.571428298950195 7.426811695098877 0
    endloop
  endfacet
  facet normal 0 -0 -1
    outer loop
      vertex 17.142856597900391 6.5690817832946777 0
      vertex 17.142856597900391 7.426811695098877 0
      vertex 20.571428298950195 7.426811695098877 0
    endloop
  endfacet
  facet normal 0 0 -1
    outer loop
      vertex 17.142856597900391 6.5690817832946777 0
      vertex 20.571428298950195 7.426811695098877 0
      vertex 20.571428298950195 6.5690817832946777 0
    endloop
  endfacet
  facet normal 0 -0 -1
    outer loop
      vertex 17.142856597900391 5.7113523483276367 0
      vertex 17.142856597900391 6.5690817832946777 0
      vertex 20.571428298950195 6.5690817832946777 0
    endloop
  endfacet
  facet normal 0 -0 -1
    outer loop
      vertex 17.142856597900391 5.7113523483276367 0
      vertex 20.571428298950195 6.5690817832946777 0
      vertex 20.571428298950195 5.7113523483276367 0
    endloop
  endfacet
  facet normal 0 -0 -1
    outer loop
      vertex 17.142856597900391 4.8536229133605957 0
      vertex 17.142856597900391 5.7113523483276367 0
      vertex 20.571428298950195 5.7113523483276367 0
    endloop
  endfacet
  facet normal 0 -0 -1
    outer loop
      vertex 17.142856597900391 4.8536229133605957 0
      vertex 20.571428298950195 5.7113523483276367 0
      vertex 20.571428298950195 4.8536229133605957 0
    endloop
  endfacet
  facet normal 0 -0 -1
    outer loop
      vertex 13.714285850524902 8.284541130065918 0
      vertex 13.714285850524902 9.1422700881958008 0
      vertex 17.142856597900391 9.1422700881958008 0
    endloop
  endfacet
  facet normal 0 0 -1
    outer loop
      vertex 13.714285850524902 8.284541130065918 0
      vertex 17.142856597900391 9.1422700881958008 0
      vertex 17.142856597900391 8.284541130065918 0
    endloop
  endfacet
  facet normal 0 -0 -1
    outer loop
      vertex 13.714285850524902 4.8536229133605957 0
      vertex 13.714285850524902 5.7113523483276367 0
      vertex 17.142856597900391 5.7113523483276367 0
    endloop
  endfacet
  facet normal 0 -0 -1
    outer loop
      vertex 13.714285850524902 4.8536229133605957 0
      vertex 17.142856597900391 5.7113523483276367 0
      vertex 17.142856597900391 4.8536229133605957 0
    endloop
  endfacet
  facet normal 0 -0 -1
    outer loop
      vertex 10.285714149475098 8.284541130065918 0
      vertex 10.285714149475098 9.1422700881958008 0
      vertex 13.714285850524902 9.1422700881958008 0
    endloop
  endfacet
  facet normal 0 0 -1
    outer loop
      vertex 10.285714149475098 8.284541130065918 0
      vertex 13.714285850524902 9.1422700881958008 0
      vertex 13.714285850524902 8.284541130065918 0
    endloop
  endfacet
  facet normal 0 -0 -1
    outer loop
      vertex 10.285714149475098 4.8536229133605957 0
      vertex 10.285714149475098 5.7113523483276367 0
      vertex 13.714285850524902 5.7113523483276367 0
    endloop
  endfacet
  facet normal 0 -0 -1
    outer loop
      vertex 10.285714149475098 4.8536229133605957 0
      vertex 13.714285850524902 5.7113523483276367 0
      vertex 13.714285850524902 4.8536229133605957 0
    endloop
  endfacet
  facet normal 0 -0 -1
    outer loop
      vertex 6.8571429252624512 8.284541130065918 0
      vertex 6.8571429252624512 9.1422700881958008 0
      vertex 10.285714149475098 9.1422700881958008 0
    endloop
  endfacet
  facet normal 0 0 -1
    outer loop
      vertex 6.8571429252624512 8.284541130065918 0
      vertex 10.285714149475098 9.1422700881958008 0
      vertex 10.285714149475098 8.284541130065918 0
    endloop
  endfacet
  facet normal 0 -0 -1
    outer loop
      vertex 6.8571429252624512 4.8536229133605957 0
      vertex 6.8571429252624512 5.7113523483276367 0
      vertex 10.285714149475098 5.7113523483276367 0
    endloop
  endfacet
  facet normal 0 0 -1
    outer loop
      vertex 6.8571429252624512 4.8536229133605957 0
      vertex 10.285714149475098 5.7113523483276367 0
      vertex 10.285714149475098 4.8536229133605957 0
    endloop
  endfacet
  facet normal 0 -0 -1
    outer loop
      vertex 3.4285714626312256 8.284541130065918 0
      vertex 3.4285714626312256 9.1422700881958008 0
      vertex 6.8571429252624512 9.1422700881958008 0
    endloop
  endfacet
  facet normal 0 0 -1
    outer loop
      vertex 3.4285714626312256 8.284541130065918 0
      vertex 6.8571429252624512 9.1422700881958008 0
      vertex 6.8571429252624512 8.284541130065918 0
    endloop
  endfacet
  facet normal 0 -0 -1
    outer loop
      vertex 3.4285714626312256 7.426811695098877 0
      vertex 3.4285714626312256 8.284541130065918 0
      vertex 6.8571429252624512 8.284541130065918 0
    endloop
  endfacet
  facet normal 0 0 -1
    outer loop
      vertex 3.4285714626312256 7.426811695098877 0
      vertex 6.8571429252624512 8.284541130065918 0
      vertex 6.8571429252624512 7.426811695098877 0
    endloop
  endfacet
  facet normal 0 -0 -1
    outer loop
      vertex 3.4285714626312256 6.5690817832946777 0
      vertex 3.4285714626312256 7.426811695098877 0
      vertex 6.8571429252624512 7.426811695098877 0
    endloop
  endfacet
  facet normal 0 0 -1
    outer loop
      vertex 3.4285714626312256 6.5690817832946777 0
      vertex 6.8571429252624512 7.426811695098877 0
      vertex 6.8571429252624512 6.5690817832946777 0
    endloop
  endfacet
  facet normal 0 -0 -1
    outer loop
      vertex 3.4285714626312256 5.7113523483276367 0
      vertex 3.4285714626312256 6.5690817832946777 0
      vertex 6.8571429252624512 6.5690817832946777 0
    endloop
  endfacet
  facet normal 0 0 -1
    outer loop
      vertex 3.4285714626312256 5.7113523483276367 0
      vertex 6.8571429252624512 6.5690817832946777 0
      vertex 6.8571429252624512 5.7113523483276367 0
    endloop
  endfacet
  facet normal 0 -0 -1
    outer loop
      vertex 3.4285714626312256 4.8536229133605957 0
      vertex 3.4285714626312256 5.7113523483276367 0
      vertex 6.8571429252624512 5.7113523483276367 0
    endloop
  endfacet
  facet normal 0 0 -1
    outer loop
      vertex 3.4285714626312256 4.8536229133605957 0
      vertex 6.8571429252624512 5.7113523483276367 0
      vertex 6.8571429252624512 4.8536229133605957 0
    endloop
  endfacet
  facet normal 0 -0 -1
    outer loop
      vertex 20.571428298950195 9.1422700881958008 0
      vertex 21.600000381469727 10 0
      vertex 24 10 0
    endloop
  endfacet
  facet normal 0 -0 -1
    outer loop
      vertex 17.142856597900391 9.1422700881958008 0
      vertex 16.799999237060547 10 0
      vertex 19.200000762939453 10 0
    endloop
  endfacet
  facet normal -0 0 -1
    outer loop
      vertex 17.142856597900391 9.1422700881958008 0
      vertex 19.200000762939453 10 0
      vertex 20.571428298950195 9.1422700881958008 0
    endloop
  endfacet
  facet normal 0 -0 -1
    outer loop
      vertex 21.600000381469727 10 0
      vertex 20.571428298950195 9.1422700881958008 0
      vertex 19.200000762939453 10 0
    endloop
  endfacet
  facet normal -0 -0 -1
    outer loop
      vertex 24 7.9986310005187988 0
      vertex 20.571428298950195 8.284541130065918 0
      vertex 20.571428298950195 9.1422700881958008 0
    endloop
  endfacet
  facet normal -0 -0 -1
    outer loop
      vertex 24 7.9986310005187988 0
      vertex 20.571428298950195 9.1422700881958008 0
      vertex 24 10 0
    endloop
  endfacet
  facet normal 0 -0 -1
    outer loop
      vertex 20.571428298950195 7.426811695098877 0
      vertex 20.571428298950195 8.284541130065918 0
      vertex 24 7.9986310005187988 0
    endloop
  endfacet
  facet normal 0 -0 -1
    outer loop
      vertex 20.571428298950195 6.5690817832946777 0
      vertex 20.571428298950195 7.426811695098877 0
      vertex 24 7.9986310005187988 0
    endloop
  endfacet
  facet normal -0 0 -1
    outer loop
      vertex 13.714285850524902 9.1422700881958008 0
      vertex 14.399999618530273 10 0
      vertex 16.799999237060547 10 0
    endloop
  endfacet
  facet normal -0 0 -1
    outer loop
      vertex 13.714285850524902 9.1422700881958008 0
      vertex 16.799999237060547 10 0
      vertex 17.142856597900391 9.1422700881958008 0
    endloop
  endfacet
  facet normal 0 -0 -1
    outer loop
      vertex 14.399999618530273 10 0
      vertex 13.714285850524902 9.1422700881958008 0
      vertex 12 10 0
    endloop
  endfacet
  facet normal 9.7144560976837588e-17 0 -1
    outer loop
      vertex 16 8 -1.1102230246251565e-16
      vertex 17.142856597900391 8.284541130065918 0
      vertex 17.142856597900391 7.426811695098877 0
    endloop
  endfacet
  facet normal 0 3.9018015580663427e-16 -1
    outer loop
      vertex 14 8 -1.1102230246251565e-16
      vertex 13.714285850524902 8.284541130065918 0
      vertex 16 8 -1.1102230246251565e-16
    endloop
  endfacet
  facet normal 0 3.9018015580663427e-16 -1
    outer loop
      vertex 17.142856597900391 8.284541130065918 0
      vertex 16 8 -1.1102230246251565e-16
      vertex 13.714285850524902 8.284541130065918 0
    endloop
  endfacet
  facet normal -0 3.9018015580663427e-16 -1
    outer loop
      vertex 13.714285850524902 8.284541130065918 0
      vertex 14 8 -1.1102230246251565e-16
      vertex 12 8 -1.1102230246251565e-16
    endloop
  endfacet
  facet normal 0 -0 -1
    outer loop
      vertex 20.571428298950195 5.7113523483276367 0
      vertex 20.571428298950195 6.5690817832946777 0
      vertex 24 5.9972624778747559 0
    endloop
  endfacet
  facet normal 0 0 -1
    outer loop
      vertex 24 7.9986310005187988 0
      vertex 24 5.9972624778747559 0
      vertex 20.571428298950195 6.5690817832946777 0
    endloop
  endfacet
  facet normal 0 -0 -1
    outer loop
      vertex 20.571428298950195 4.8536229133605957 0
      vertex 20.571428298950195 5.7113523483276367 0
      vertex 24 5.9972624778747559 0
    endloop
  endfacet
  facet normal 0 0 -1
    outer loop
      vertex 20.571428298950195 4.8536229133605957 0
      vertex 24 3.9958934783935547 0
      vertex 21.600000381469727 3.9958934783935547 0
    endloop
  endfacet
  facet normal -0 -0 -1
    outer loop
      vertex 21.600000381469727 3.9958934783935547 0
      vertex 19.200000762939453 3.9958934783935547 0
      vertex 20.571428298950195 4.8536229133605957 0
    endloop
  endfacet
  facet normal 0 -0 -1
    outer loop
      vertex 20.571428298950195 4.8536229133605957 0
      vertex 19.200000762939453 3.9958934783935547 0
      vertex 16.799999237060547 3.9958934783935547 0
    endloop
  endfacet
  facet normal 0 -0 -1
    outer loop
      vertex 20.571428298950195 4.8536229133605957 0
      vertex 16.799999237060547 3.9958934783935547 0
      vertex 17.142856597900391 4.8536229133605957 0
    endloop
  endfacet
  facet normal 0 0 -1
    outer loop
      vertex 20.571428298950195 4.8536229133605957 0
      vertex 24 5.9972624778747559 0
      vertex 24 3.9958934783935547 0
    endloop
  endfacet
  facet normal 0 -3.8462915537083356e-16 -1
    outer loop
      vertex 13.714285850524902 5.7113523483276367 0
      vertex 14 6 -1.1102230246251565e-16
      vertex 16 6 -1.1102230246251565e-16
    endloop
  endfacet
  facet normal -0 -3.8462915537083356e-16 -1
    outer loop
      vertex 13.714285850524902 5.7113523483276367 0
      vertex 16 6 -1.1102230246251565e-16
      vertex 17.142856597900391 5.7113523483276367 0
    endloop
  endfacet
  facet normal 9.7144560976837588e-17 0 -1
    outer loop
      vertex 17.142856597900391 6.5690817832946777 0
      vertex 17.142856597900391 5.7113523483276367 0
      vertex 16 6 -1.1102230246251565e-16
    endloop
  endfacet
  facet normal 0 -3.8462915537083356e-16 -1
    outer loop
      vertex 12 6 -1.1102230246251565e-16
      vertex 14 6 -1.1102230246251565e-16
      vertex 13.714285850524902 5.7113523483276367 0
    endloop
  endfacet
  facet normal 9.7144560976837588e-17 0 -1
    outer loop
      vertex 17.142856597900391 6.5690817832946777 0
      vertex 16 6 -1.1102230246251565e-16
      vertex 17.142856597900391 7.426811695098877 0
    endloop
  endfacet
  facet normal 0 -0 -1
    outer loop
      vertex 14.399999618530273 3.9958934783935547 0
      vertex 13.714285850524902 4.8536229133605957 0
      vertex 17.142856597900391 4.8536229133605957 0
    endloop
  endfacet
  facet normal 0 -0 -1
    outer loop
      vertex 14.399999618530273 3.9958934783935547 0
      vertex 17.142856597900391 4.8536229133605957 0
      vertex 16.799999237060547 3.9958934783935547 0
    endloop
  endfacet
  facet normal -0 0 -1
    outer loop
      vertex 12 3.9958934783935547 0
      vertex 13.714285850524902 4.8536229133605957 0
      vertex 14.399999618530273 3.9958934783935547 0
    endloop
  endfacet
  facet normal 0 -0 -1
    outer loop
      vertex 13.714285850524902 4.8536229133605957 0
      vertex 12 3.9958934783935547 0
      vertex 9.6000003814697266 3.9958934783935547 0
    endloop
  endfacet
  facet normal 0 -0 -1
    outer loop
      vertex 13.714285850524902 4.8536229133605957 0
      vertex 9.6000003814697266 3.9958934783935547 0
      vertex 10.285714149475098 4.8536229133605957 0
    endloop
  endfacet
  facet normal 9.7144560976837588e-17 0 -1
    outer loop
      vertex 17.142856597900391 7.426811695098877 0
      vertex 16 6 -1.1102230246251565e-16
      vertex 16 8 -1.1102230246251565e-16
    endloop
  endfacet
  facet normal -0 -0 -1
    outer loop
      vertex 13.714285850524902 9.1422700881958008 0
      vertex 10.285714149475098 9.1422700881958008 0
      vertex 12 10 0
    endloop
  endfacet
  facet normal -0 0 -1
    outer loop
      vertex 6.8571429252624512 9.1422700881958008 0
      vertex 7.1999998092651367 10 0
      vertex 9.6000003814697266 10 0
    endloop
  endfacet
  facet normal -0 0 -1
    outer loop
      vertex 6.8571429252624512 9.1422700881958008 0
      vertex 9.6000003814697266 10 0
      vertex 10.285714149475098 9.1422700881958008 0
    endloop
  endfacet
  facet normal 0 0 -1
    outer loop
      vertex 4.8000001907348633 10 0
      vertex 7.1999998092651367 10 0
      vertex 6.8571429252624512 9.1422700881958008 0
    endloop
  endfacet
  facet normal -0 3.9018015580663427e-16 -1
    outer loop
      vertex 10 8 -1.1102230246251565e-16
      vertex 10.285714149475098 8.284541130065918 0
      vertex 12 8 -1.1102230246251565e-16
    endloop
  endfacet
  facet normal 0 3.9018015580663427e-16 -1
    outer loop
      vertex 10.285714149475098 8.284541130065918 0
      vertex 13.714285850524902 8.284541130065918 0
      vertex 12 8 -1.1102230246251565e-16
    endloop
  endfacet
  facet normal -9.714452044496583e-17 0 -1
    outer loop
      vertex 8 6 -1.1102230246251565e-16
      vertex 6.8571429252624512 6.5690817832946777 0
      vertex 6.8571429252624512 7.426811695098877 0
    endloop
  endfacet
  facet normal -9.714452044496583e-17 -0 -1
    outer loop
      vertex 8 6 -1.1102230246251565e-16
      vertex 6.8571429252624512 7.426811695098877 0
      vertex 8 8 -1.1102230246251565e-16
    endloop
  endfacet
  facet normal 0 3.9018015580663427e-16 -1
    outer loop
      vertex 10.285714149475098 8.284541130065918 0
      vertex 10 8 -1.1102230246251565e-16
      vertex 8 8 -1.1102230246251565e-16
    endloop
  endfacet
  facet normal 0 3.9018015580663427e-16 -1
    outer loop
      vertex 6.8571429252624512 8.284541130065918 0
      vertex 10.285714149475098 8.284541130065918 0
      vertex 8 8 -1.1102230246251565e-16
    endloop
  endfacet
  facet normal 0 0 -1
    outer loop
      vertex 9.6000003814697266 10 0
      vertex 12 10 0
      vertex 10.285714149475098 9.1422700881958008 0
    endloop
  endfacet
  facet normal 0 0 -1
    outer loop
      vertex 2.4000000953674316 10 0
      vertex 4.8000001907348633 10 0
      vertex 3.4285714626312256 9.1422700881958008 0
    endloop
  endfacet
  facet normal 0 0 -1
    outer loop
      vertex 3.4285714626312256 9.1422700881958008 0
      vertex 0 10 0
      vertex 2.4000000953674316 10 0
    endloop
  endfacet
  facet normal 0 -0 -1
    outer loop
      vertex 0 10 0
      vertex 3.4285714626312256 9.1422700881958008 0
      vertex 3.4285714626312256 8.284541130065918 0
    endloop
  endfacet
  facet normal 0 0 -1
    outer loop
      vertex 0 10 0
      vertex 3.4285714626312256 8.284541130065918 0
      vertex 0 7.9986310005187988 0
    endloop
  endfacet
  facet normal -9.714452044496583e-17 -0 -1
    outer loop
      vertex 8 8 -1.1102230246251565e-16
      vertex 6.8571429252624512 7.426811695098877 0
      vertex 6.8571429252624512 8.284541130065918 0
    endloop
  endfacet
  facet normal -0 -0 -1
    outer loop
      vertex 3.4285714626312256 7.426811695098877 0
      vertex 0 7.9986310005187988 0
      vertex 3.4285714626312256 8.284541130065918 0
    endloop
  endfacet
  facet normal -0 -0 -1
    outer loop
      vertex 3.4285714626312256 6.5690817832946777 0
      vertex 0 7.9986310005187988 0
      vertex 3.4285714626312256 7.426811695098877 0
    endloop
  endfacet
  facet normal -0 0 -1
    outer loop
      vertex 4.8000001907348633 10 0
      vertex 6.8571429252624512 9.1422700881958008 0
      vertex 3.4285714626312256 9.1422700881958008 0
    endloop
  endfacet
  facet normal 0 -3.8462915537083356e-16 -1
    outer loop
      vertex 10.285714149475098 5.7113523483276367 0
      vertex 10 6 -1.1102230246251565e-16
      vertex 12 6 -1.1102230246251565e-16
    endloop
  endfacet
  facet normal 0 -3.8462915537083356e-16 -1
    outer loop
      vertex 6.8571429252624512 5.7113523483276367 0
      vertex 8 6 -1.1102230246251565e-16
      vertex 10 6 -1.1102230246251565e-16
    endloop
  endfacet
  facet normal -0 -3.8462915537083356e-16 -1
    outer loop
      vertex 6.8571429252624512 5.7113523483276367 0
      vertex 10 6 -1.1102230246251565e-16
      vertex 10.285714149475098 5.7113523483276367 0
    endloop
  endfacet
  facet normal 0 -0 -1
    outer loop
      vertex 7.1999998092651367 3.9958934783935547 0
      vertex 6.8571429252624512 4.8536229133605957 0
      vertex 10.285714149475098 4.8536229133605957 0
    endloop
  endfacet
  facet normal 0 0 -1
    outer loop
      vertex 7.1999998092651367 3.9958934783935547 0
      vertex 10.285714149475098 4.8536229133605957 0
      vertex 9.6000003814697266 3.9958934783935547 0
    endloop
  endfacet
  facet normal -9.714452044496583e-17 -0 -1
    outer loop
      vertex 6.8571429252624512 5.7113523483276367 0
      vertex 6.8571429252624512 6.5690817832946777 0
      vertex 8 6 -1.1102230246251565e-16
    endloop
  endfacet
  facet normal -0 -3.8462915537083356e-16 -1
    outer loop
      vertex 10.285714149475098 5.7113523483276367 0
      vertex 12 6 -1.1102230246251565e-16
      vertex 13.714285850524902 5.7113523483276367 0
    endloop
  endfacet
  facet normal -0 -0 -1
    outer loop
      vertex 3.4285714626312256 4.8536229133605957 0
      vertex 0 5.9972624778747559 0
      vertex 3.4285714626312256 5.7113523483276367 0
    endloop
  endfacet
  facet normal 0 0 -1
    outer loop
      vertex 3.4285714626312256 6.5690817832946777 0
      vertex 3.4285714626312256 5.7113523483276367 0
      vertex 0 5.9972624778747559 0
    endloop
  endfacet
  facet normal 0 -0 -1
    outer loop
      vertex 0 5.9972624778747559 0
      vertex 0 7.9986310005187988 0
      vertex 3.4285714626312256 6.5690817832946777 0
    endloop
  endfacet
  facet normal -0 -0 -1
    outer loop
      vertex 7.1999998092651367 3.9958934783935547 0
      vertex 4.8000001907348633 3.9958934783935547 0
      vertex 6.8571429252624512 4.8536229133605957 0
    endloop
  endfacet
  facet normal 0 0 -1
    outer loop
      vertex 3.4285714626312256 4.8536229133605957 0
      vertex 6.8571429252624512 4.8536229133605957 0
      vertex 4.8000001907348633 3.9958934783935547 0
    endloop
  endfacet
  facet normal 0 -0 -1
    outer loop
      vertex 2.4000000953674316 3.9958934783935547 0
      vertex 0 3.9958934783935547 0
      vertex 3.4285714626312256 4.8536229133605957 0
    endloop
  endfacet
  facet normal 0 0 -1
    outer loop
      vertex 0 5.9972624778747559 0
      vertex 3.4285714626312256 4.8536229133605957 0
      vertex 0 3.9958934783935547 0
    endloop
  endfacet
  facet normal -0 -0 -1
    outer loop
      vertex 4.8000001907348633 3.9958934783935547 0
      vertex 2.4000000953674316 3.9958934783935547 0
      vertex 3.4285714626312256 4.8536229133605957 0
    endloop
  endfacet
  facet normal -0.93934020866678336 0 0.34298683995431084
    outer loop
      vertex 1.3333333730697632 10.331964492797852 3.6516084671020508
      vertex 1.3333333730697632 13.663928985595703 3.6516084671020508
      vertex 0 13.995893478393555 0
    endloop
  endfacet
  facet normal -0.93934020866678336 -0 0.34298683995431084
    outer loop
      vertex 0 13.995893478393555 0
      vertex 0 10 0
      vertex 1.3333333730697632 10.331964492797852 3.6516084671020508
    endloop
  endfacet
  facet normal -0.93934020866678336 -0 0.34298683995431084
    outer loop
      vertex 1.3333333730697632 10.331964492797852 3.6516084671020508
      vertex 2.6666667461395264 10.663928985595703 7.3032169342041016
      vertex 1.3333333730697632 13.663928985595703 3.6516084671020508
    endloop
  endfacet
  facet normal -0.93934021854660632 -0 0.34298681289637645
    outer loop
      vertex 4 11.997946739196777 10.954825401306152
      vertex 4 13 10.954825401306152
      vertex 2.6666667461395264 13.331964492797852 7.3032169342041016
    endloop
  endfacet
  facet normal -0.93934021854660632 -0 0.34298681289637645
    outer loop
      vertex 4 10.995893478393555 10.954825401306152
      vertex 4 11.997946739196777 10.954825401306152
      vertex 2.6666667461395264 10.663928985595703 7.3032169342041016
    endloop
  endfacet
  facet normal -0.93934021854660632 0 0.34298681289637645
    outer loop
      vertex 2.6666667461395264 13.331964492797852 7.3032169342041016
      vertex 2.6666667461395264 10.663928985595703 7.3032169342041016
      vertex 4 11.997946739196777 10.954825401306152
    endloop
  endfacet
  facet normal -0.93934020866678336 -0 0.34298683995431084
    outer loop
      vertex 1.3333333730697632 13.663928985595703 3.6516084671020508
      vertex 2.6666667461395264 10.663928985595703 7.3032169342041016
      vertex 2.6666667461395264 13.331964492797852 7.3032169342041016
    endloop
  endfacet
  facet normal 0.60024734563386228 0 0.799814431014784
    outer loop
      vertex 4 3.0000002384185791 10.954825401306152
      vertex 5.393218994140625 10.900839805603027 9.9092378616333008
      vertex 4 10.995893478393555 10.954825401306152
    endloop
  endfacet
  facet normal 0.21276606660678946 0 0.97710316799234409
    outer loop
      vertex 8.5557126998901367 3.2265474796295166 8.4628067016601562
      vertex 10.259969711303711 10.73560905456543 8.0917015075683594
      vertex 8.5557126998901367 10.769346237182617 8.4628067016601562
    endloop
  endfacet
  facet normal 0.34985852372920517 0 0.93680254769829763
    outer loop
      vertex 6.9222688674926758 3.1710906028747559 9.0728330612182617
      vertex 8.5557126998901367 10.769346237182617 8.4628067016601562
      vertex 6.9222688674926758 10.824803352355957 9.0728330612182617
    endloop
  endfacet
  facet normal 0.47990317044768888 0 0.87732146160586788
    outer loop
      vertex 5.393218994140625 3.0950536727905273 9.9092378616333008
      vertex 6.9222688674926758 10.824803352355957 9.0728330612182617
      vertex 5.393218994140625 10.900839805603027 9.9092378616333008
    endloop
  endfacet
  facet normal 0.60024734563386228 -0 0.799814431014784
    outer loop
      vertex 5.393218994140625 3.0950536727905273 9.9092378616333008
      vertex 5.393218994140625 10.900839805603027 9.9092378616333008
      vertex 4 3.0000002384185791 10.954825401306152
    endloop
  endfacet
  facet normal 0.47990317044768888 1.2175281083407874e-17 0.87732146160586799
    outer loop
      vertex 6.9222688674926758 3.1710906028747559 9.0728330612182617
      vertex 6.9222688674926758 10.824803352355957 9.0728330612182617
      vertex 5.393218994140625 3.0950536727905273 9.9092378616333008
    endloop
  endfacet
  facet normal 0.21276606660678948 -0 0.9771031679923442
    outer loop
      vertex 8.5557126998901367 3.2265474796295166 8.4628067016601562
      vertex 10.259969711303711 3.2602841854095459 8.0917015075683594
      vertex 10.259969711303711 10.73560905456543 8.0917015075683594
    endloop
  endfacet
  facet normal 0.34985852372920523 0 0.93680254769829763
    outer loop
      vertex 8.5557126998901367 10.769346237182617 8.4628067016601562
      vertex 6.9222688674926758 3.1710906028747559 9.0728330612182617
      vertex 8.5557126998901367 3.2265474796295166 8.4628067016601562
    endloop
  endfacet
  facet normal 0.071400003088445144 -0 0.99744776282217917
    outer loop
      vertex 12 3.2716073989868164 7.9671454429626465
      vertex 12 10.724286079406738 7.9671454429626465
      vertex 10.259969711303711 3.2602841854095459 8.0917015075683594
    endloop
  endfacet
  facet normal 0.071400003088445144 0 0.99744776282217917
    outer loop
      vertex 10.259969711303711 3.2602841854095459 8.0917015075683594
      vertex 12 10.724286079406738 7.9671454429626465
      vertex 10.259969711303711 10.73560905456543 8.0917015075683594
    endloop
  endfacet
  facet normal -0.21276606660678946 -0 0.97710316799234409
    outer loop
      vertex 15.444287300109863 3.2265474796295166 8.4628067016601562
      vertex 15.444287300109863 10.769346237182617 8.4628067016601562
      vertex 13.740030288696289 10.73560905456543 8.0917015075683594
    endloop
  endfacet
  facet normal -0.60024734563386228 -0 0.799814431014784
    outer loop
      vertex 20 3.0000002384185791 10.954825401306152
      vertex 20 10.995893478393555 10.954825401306152
      vertex 18.606781005859375 10.900839805603027 9.9092378616333008
    endloop
  endfacet
  facet normal -0.47990340083032273 0 0.87732133558434044
    outer loop
      vertex 18.606781005859375 3.0950536727905273 9.9092378616333008
      vertex 18.606781005859375 10.900839805603027 9.9092378616333008
      vertex 17.077732086181641 10.824803352355957 9.0728330612182617
    endloop
  endfacet
  facet normal -0.349858344468847 0 0.93680261464489822
    outer loop
      vertex 17.077732086181641 3.1710906028747559 9.0728330612182617
      vertex 17.077732086181641 10.824803352355957 9.0728330612182617
      vertex 15.444287300109863 10.769346237182617 8.4628067016601562
    endloop
  endfacet
  facet normal -0.071400003088445144 0 0.99744776282217917
    outer loop
      vertex 13.740030288696289 3.2602841854095459 8.0917015075683594
      vertex 12 10.724286079406738 7.9671454429626465
      vertex 12 3.2716073989868164 7.9671454429626465
    endloop
  endfacet
  facet normal -0.21276606660678948 0 0.9771031679923442
    outer loop
      vertex 13.740030288696289 10.73560905456543 8.0917015075683594
      vertex 13.740030288696289 3.2602841854095459 8.0917015075683594
      vertex 15.444287300109863 3.2265474796295166 8.4628067016601562
    endloop
  endfacet
  facet normal -0.47990340083032279 0 0.87732133558434044
    outer loop
      vertex 17.077732086181641 10.824803352355957 9.0728330612182617
      vertex 17.077732086181641 3.1710906028747559 9.0728330612182617
      vertex 18.606781005859375 3.0950536727905273 9.9092378616333008
    endloop
  endfacet
  facet normal -0.60024734563386228 0 0.799814431014784
    outer loop
      vertex 18.606781005859375 10.900839805603027 9.9092378616333008
      vertex 18.606781005859375 3.0950536727905273 9.9092378616333008
      vertex 20 3.0000002384185791 10.954825401306152
    endloop
  endfacet
  facet normal -0.349858344468847 0 0.93680261464489811
    outer loop
      vertex 17.077732086181641 3.1710906028747559 9.0728330612182617
      vertex 15.444287300109863 10.769346237182617 8.4628067016601562
      vertex 15.444287300109863 3.2265474796295166 8.4628067016601562
    endloop
  endfacet
  facet normal -0.071400003088445144 -0 0.99744776282217917
    outer loop
      vertex 13.740030288696289 10.73560905456543 8.0917015075683594
      vertex 12 10.724286079406738 7.9671454429626465
      vertex 13.740030288696289 3.2602841854095459 8.0917015075683594
    endloop
  endfacet
  facet normal -0.93934021196005768 0 0.34298683093499943
    outer loop
      vertex 2 3.4979469776153564 5.4774127006530762
      vertex 2 0.49794659018516541 5.4774127006530762
      vertex 4 3.0000002384185791 10.954825401306152
    endloop
  endfacet
  facet normal -0.93934021196005768 -0 0.34298683093499943
    outer loop
      vertex 4 0.99589318037033081 10.954825401306152
      vertex 4 3.0000002384185791 10.954825401306152
      vertex 2 0.49794659018516541 5.4774127006530762
    endloop
  endfacet
  facet normal -0.93934021196005768 0 0.34298683093499943
    outer loop
      vertex 2 3.4979469776153564 5.4774127006530762
      vertex 0 3.9958934783935547 0
      vertex 0 0 0
    endloop
  endfacet
  facet normal -0.93934021196005768 -0 0.34298683093499943
    outer loop
      vertex 2 0.49794659018516541 5.4774127006530762
      vertex 2 3.4979469776153564 5.4774127006530762
      vertex 0 0 0
    endloop
  endfacet
  facet normal 0 -0 -1
    outer loop
      vertex 2.4000000953674316 3.9958934783935547 0
      vertex 0 0 0
      vertex 0 3.9958934783935547 0
    endloop
  endfacet
  facet normal 0 -0 -1
    outer loop
      vertex 0 0 0
      vertex 2.4000000953674316 3.9958934783935547 0
      vertex 4.8000001907348633 3.9958934783935547 0
    endloop
  endfacet
  facet normal -0 0 -1
    outer loop
      vertex 0 0 0
      vertex 4.8000001907348633 3.9958934783935547 0
      vertex 8 0 0
    endloop
  endfacet
  facet normal -0 0 -1
    outer loop
      vertex 8 0 0
      vertex 7.1999998092651367 3.9958934783935547 0
      vertex 9.6000003814697266 3.9958934783935547 0
    endloop
  endfacet
  facet normal 0 0 -1
    outer loop
      vertex 7.1999998092651367 3.9958934783935547 0
      vertex 8 0 0
      vertex 4.8000001907348633 3.9958934783935547 0
    endloop
  endfacet
  facet normal -0 0 -1
    outer loop
      vertex 9.6000003814697266 3.9958934783935547 0
      vertex 12 3.9958934783935547 0
      vertex 8 0 0
    endloop
  endfacet
  facet normal -0 -0 -1
    outer loop
      vertex 16 0 0
      vertex 12 3.9958934783935547 0
      vertex 14.399999618530273 3.9958934783935547 0
    endloop
  endfacet
  facet normal 0 -0 -1
    outer loop
      vertex 16.799999237060547 3.9958934783935547 0
      vertex 16 0 0
      vertex 14.399999618530273 3.9958934783935547 0
    endloop
  endfacet
  facet normal -0 -0 -1
    outer loop
      vertex 16 0 0
      vertex 8 0 0
      vertex 12 3.9958934783935547 0
    endloop
  endfacet
  facet normal -0 0 -1
    outer loop
      vertex 16 0 0
      vertex 19.200000762939453 3.9958934783935547 0
      vertex 21.600000381469727 3.9958934783935547 0
    endloop
  endfacet
  facet normal -0 0 -1
    outer loop
      vertex 16 0 0
      vertex 21.600000381469727 3.9958934783935547 0
      vertex 24 0 0
    endloop
  endfacet
  facet normal -0 0 -1
    outer loop
      vertex 16 0 0
      vertex 16.799999237060547 3.9958934783935547 0
      vertex 19.200000762939453 3.9958934783935547 0
    endloop
  endfacet
  facet normal -0 0 -1
    outer loop
      vertex 24 0 0
      vertex 21.600000381469727 3.9958934783935547 0
      vertex 24 3.9958934783935547 0
    endloop
  endfacet
  facet normal 0.93934015926765968 0 0.34298697524397004
    outer loop
      vertex 22.666666030883789 3.6639289855957031 3.6516084671020508
      vertex 22.666666030883789 0.3319644033908844 3.6516084671020508
      vertex 24 0 0
    endloop
  endfacet
  facet normal 0.93934015926765957 -0 0.34298697524396998
    outer loop
      vertex 24 0 0
      vertex 24 3.9958934783935547 0
      vertex 22.666666030883789 3.6639289855957031 3.6516084671020508
    endloop
  endfacet
  facet normal 0.93934031734480483 -0 0.34298654231698539
    outer loop
      vertex 22.666666030883789 3.6639289855957031 3.6516084671020508
      vertex 21.333333969116211 3.3319647312164307 7.3032169342041016
      vertex 22.666666030883789 0.3319644033908844 3.6516084671020508
    endloop
  endfacet
  facet normal 0.93934015926765957 0 0.34298697524396998
    outer loop
      vertex 20 1.9979467391967773 10.954825401306152
      vertex 20 0.99589318037033081 10.954825401306152
      vertex 21.333333969116211 0.6639288067817688 7.3032169342041016
    endloop
  endfacet
  facet normal 0.93934015926765957 0 0.34298697524396998
    outer loop
      vertex 20 3.0000002384185791 10.954825401306152
      vertex 20 1.9979467391967773 10.954825401306152
      vertex 21.333333969116211 3.3319647312164307 7.3032169342041016
    endloop
  endfacet
  facet normal 0.93934015926765957 -0 0.34298697524396998
    outer loop
      vertex 21.333333969116211 0.6639288067817688 7.3032169342041016
      vertex 21.333333969116211 3.3319647312164307 7.3032169342041016
      vertex 20 1.9979467391967773 10.954825401306152
    endloop
  endfacet
  facet normal 0.93934031734480483 0 0.34298654231698539
    outer loop
      vertex 22.666666030883789 0.3319644033908844 3.6516084671020508
      vertex 21.333333969116211 3.3319647312164307 7.3032169342041016
      vertex 21.333333969116211 0.6639288067817688 7.3032169342041016
    endloop
  endfacet
  facet normal -0.58286947160573255 -0 0.81256579984026789
    outer loop
      vertex 18.159786224365234 0.87589126825332642 9.6348037719726562
      vertex 20 0.99589318037033081 10.954825401306152
      vertex 20 1.9979467391967773 10.954825401306152
    endloop
  endfacet
  facet normal -0.5904463749105795 0.019151102485967127 0.80684962268599203
    outer loop
      vertex 18.606781005859375 3.0950536727905273 9.9092378616333008
      vertex 18.159786224365234 0.87589126825332642 9.6348037719726562
      vertex 20 1.9979467391967773 10.954825401306152
    endloop
  endfacet
  facet normal -0.42521118282093739 0.021086116346580287 0.90484850980782305
    outer loop
      vertex 16.163581848144531 0.79079270362854004 8.6987199783325195
      vertex 18.159786224365234 0.87589126825332642 9.6348037719726562
      vertex 17.077732086181641 3.1710906028747559 9.0728330612182617
    endloop
  endfacet
  facet normal -0.25612120327605831 0.01797319896588255 0.9664775700197894
    outer loop
      vertex 14.058773994445801 0.74017065763473511 8.1418771743774414
      vertex 16.163581848144531 0.79079270362854004 8.6987199783325195
      vertex 15.444287300109863 3.2265474796295166 8.4628067016601562
    endloop
  endfacet
  facet normal -0.60024734563386228 -0 0.799814431014784
    outer loop
      vertex 18.606781005859375 3.0950536727905273 9.9092378616333008
      vertex 20 1.9979467391967773 10.954825401306152
      vertex 20 3.0000002384185791 10.954825401306152
    endloop
  endfacet
  facet normal -0.35020866819596497 -0.012706627059442362 0.93658551683718705
    outer loop
      vertex 17.077732086181641 3.1710906028747559 9.0728330612182617
      vertex 15.444287300109863 3.2265474796295166 8.4628067016601562
      vertex 16.163581848144531 0.79079270362854004 8.6987199783325195
    endloop
  endfacet
  facet normal -0.48031859227188267 -0.011708546877406106 0.87701594047541487
    outer loop
      vertex 18.159786224365234 0.87589126825332642 9.6348037719726562
      vertex 18.606781005859375 3.0950536727905273 9.9092378616333008
      vertex 17.077732086181641 3.1710906028747559 9.0728330612182617
    endloop
  endfacet
  facet normal -0.21290138800551636 -0.007474698166640311 0.97704510022446878
    outer loop
      vertex 13.740030288696289 3.2602841854095459 8.0917015075683594
      vertex 14.058773994445801 0.74017065763473511 8.1418771743774414
      vertex 15.444287300109863 3.2265474796295166 8.4628067016601562
    endloop
  endfacet
  facet normal -0.08092098234172955 0.0096089872742135506 0.99667420051911326
    outer loop
      vertex 13.740030288696289 3.2602841854095459 8.0917015075683594
      vertex 11.908966064453125 0.72431677579879761 7.9674849510192871
      vertex 14.058773994445801 0.74017065763473511 8.1418771743774414
    endloop
  endfacet
  facet normal 0.095808852202627859 0.013547007633786367 0.99530756172340284
    outer loop
      vertex 10.259969711303711 3.2602841854095459 8.0917015075683594
      vertex 9.762019157409668 0.74308139085769653 8.1738958358764648
      vertex 11.908966064453125 0.72431677579879761 7.9674849510192871
    endloop
  endfacet
  facet normal 0.43526082265496169 0.019258595160852088 0.90009839616241771
    outer loop
      vertex 6.9222688674926758 3.1710906028747559 9.0728330612182617
      vertex 5.7444014549255371 0.88103753328323364 9.6914129257202148
      vertex 7.6854090690612793 0.79587471485137939 8.7546215057373047
    endloop
  endfacet
  facet normal 0.58710760871307233 0.013493654929830822 0.80939642763472386
    outer loop
      vertex 5.393218994140625 3.0950536727905273 9.9092378616333008
      vertex 4 0.99589318037033081 10.954825401306152
      vertex 5.7444014549255371 0.88103753328323364 9.6914129257202148
    endloop
  endfacet
  facet normal 0.26971761375170594 0.019010788092764179 0.96275178460918864
    outer loop
      vertex 8.5557126998901367 3.2265474796295166 8.4628067016601562
      vertex 7.6854090690612793 0.79587471485137939 8.7546215057373047
      vertex 9.762019157409668 0.74308139085769653 8.1738958358764648
    endloop
  endfacet
  facet normal 0.071415457241137126 -0.0024192724205091133 0.99744372251671165
    outer loop
      vertex 12 3.2716073989868164 7.9671454429626465
      vertex 10.259969711303711 3.2602841854095459 8.0917015075683594
      vertex 11.908966064453125 0.72431677579879761 7.9674849510192871
    endloop
  endfacet
  facet normal 0.21294815020468705 -0.010222842224611353 0.97701001981620061
    outer loop
      vertex 10.259969711303711 3.2602841854095459 8.0917015075683594
      vertex 8.5557126998901367 3.2265474796295166 8.4628067016601562
      vertex 9.762019157409668 0.74308139085769653 8.1738958358764648
    endloop
  endfacet
  facet normal 0.350215093029908 -0.012953465472918828 0.93657973304267861
    outer loop
      vertex 7.6854090690612793 0.79587471485137939 8.7546215057373047
      vertex 8.5557126998901367 3.2265474796295166 8.4628067016601562
      vertex 6.9222688674926758 3.1710906028747559 9.0728330612182617
    endloop
  endfacet
  facet normal 0.48026559282207532 -0.01011091968214428 0.87706483777109745
    outer loop
      vertex 6.9222688674926758 3.1710906028747559 9.0728330612182617
      vertex 5.393218994140625 3.0950536727905273 9.9092378616333008
      vertex 5.7444014549255371 0.88103753328323364 9.6914129257202148
    endloop
  endfacet
  facet normal 0.60024734563386228 0 0.799814431014784
    outer loop
      vertex 5.393218994140625 3.0950536727905273 9.9092378616333008
      vertex 4 3.0000002384185791 10.954825401306152
      vertex 4 0.99589318037033081 10.954825401306152
    endloop
  endfacet
  facet normal -0.071382369043905894 0.0026839727962578263 0.99744541388474417
    outer loop
      vertex 13.740030288696289 3.2602841854095459 8.0917015075683594
      vertex 12 3.2716073989868164 7.9671454429626465
      vertex 11.908966064453125 0.72431677579879761 7.9674849510192871
    endloop
  endfacet
  facet normal 0 0 -1
    outer loop
      vertex 8.5 7 7
      vertex 9.2777776718139648 6.5 7
      vertex 8.5 6.5 7
    endloop
  endfacet
  facet normal -0 0 -1
    outer loop
      vertex 10.05555534362793 6.5 7
      vertex 10.05555534362793 7.5 7
      vertex 10.833333015441895 7.5 7
    endloop
  endfacet
  facet normal -0 0 -1
    outer loop
      vertex 10.05555534362793 6.5 7
      vertex 10.833333015441895 7.5 7
      vertex 10.833333015441895 6.5 7
    endloop
  endfacet
  facet normal 0 0 -1
    outer loop
      vertex 11.611110687255859 6.5 7
      vertex 10.833333015441895 6.5 7
      vertex 10.833333015441895 7.5 7
    endloop
  endfacet
  facet normal -0 0 -1
    outer loop
      vertex 11.611110687255859 6.5 7
      vertex 10.833333015441895 7.5 7
      vertex 11.611110687255859 7.5 7
    endloop
  endfacet
  facet normal 0 0 -1
    outer loop
      vertex 8.5 7 7
      vertex 10.05555534362793 6.5 7
      vertex 9.2777776718139648 6.5 7
    endloop
  endfacet
  facet normal 0 0 -1
    outer loop
      vertex 8.5 7.5 7
      vertex 9.2777776718139648 7.5 7
      vertex 8.5 7 7
    endloop
  endfacet
  facet normal 0 -0 -1
    outer loop
      vertex 10.05555534362793 7.5 7
      vertex 8.5 7 7
      vertex 9.2777776718139648 7.5 7
    endloop
  endfacet
  facet normal -0 -0 -1
    outer loop
      vertex 10.05555534362793 6.5 7
      vertex 8.5 7 7
      vertex 10.05555534362793 7.5 7
    endloop
  endfacet
  facet normal -0 0 -1
    outer loop
      vertex 11.611110687255859 6.5 7
      vertex 11.611110687255859 7.5 7
      vertex 12.388889312744141 7.5 7
    endloop
  endfacet
  facet normal -0 0 -1
    outer loop
      vertex 11.611110687255859 6.5 7
      vertex 12.388889312744141 7.5 7
      vertex 12.388889312744141 6.5 7
    endloop
  endfacet
  facet normal -0 0 -1
    outer loop
      vertex 12.388889312744141 6.5 7
      vertex 12.388889312744141 7.5 7
      vertex 13.166666984558105 7.5 7
    endloop
  endfacet
  facet normal -0 0 -1
    outer loop
      vertex 12.388889312744141 6.5 7
      vertex 13.166666984558105 7.5 7
      vertex 13.166666984558105 6.5 7
    endloop
  endfacet
  facet normal 0 -0 -1
    outer loop
      vertex 15.5 7 7
      vertex 14.722222328186035 6.5 7
      vertex 13.94444465637207 6.5 7
    endloop
  endfacet
  facet normal -0 0 -1
    outer loop
      vertex 15.5 7 7
      vertex 15.5 6.5 7
      vertex 14.722222328186035 6.5 7
    endloop
  endfacet
  facet normal -0 0 -1
    outer loop
      vertex 13.166666984558105 6.5 7
      vertex 13.166666984558105 7.5 7
      vertex 13.94444465637207 7.5 7
    endloop
  endfacet
  facet normal -0 0 -1
    outer loop
      vertex 13.166666984558105 6.5 7
      vertex 13.94444465637207 7.5 7
      vertex 13.94444465637207 6.5 7
    endloop
  endfacet
  facet normal 0 0 -1
    outer loop
      vertex 15.5 7.5 7
      vertex 15.5 7 7
      vertex 14.722222328186035 7.5 7
    endloop
  endfacet
  facet normal 0 0 -1
    outer loop
      vertex 13.94444465637207 7.5 7
      vertex 14.722222328186035 7.5 7
      vertex 15.5 7 7
    endloop
  endfacet
  facet normal 0 -0 -1
    outer loop
      vertex 13.94444465637207 6.5 7
      vertex 13.94444465637207 7.5 7
      vertex 15.5 7 7
    endloop
  endfacet
  facet normal 0 -0 -1
    outer loop
      vertex 9.142857551574707 6.2857141494750977 7
      vertex 8.8000001907348633 6 7
      vertex 8 6 7
    endloop
  endfacet
  facet normal -0 0 -1
    outer loop
      vertex 9.142857551574707 6.2857141494750977 7
      vertex 9.6000003814697266 6 7
      vertex 8.8000001907348633 6 7
    endloop
  endfacet
  facet normal -0 0 -1
    outer loop
      vertex 8 6 7
      vertex 8 6.6666665077209473 7
      vertex 8.5 6.5 7
    endloop
  endfacet
  facet normal 0 0 -1
    outer loop
      vertex 8.5 6.5 7
      vertex 9.2777776718139648 6.5 7
      vertex 9.142857551574707 6.2857141494750977 7
    endloop
  endfacet
  facet normal -0 0 -1
    outer loop
      vertex 9.142857551574707 6.2857141494750977 7
      vertex 9.2777776718139648 6.5 7
      vertex 10.05555534362793 6.5 7
    endloop
  endfacet
  facet normal 0 -0 -1
    outer loop
      vertex 9.142857551574707 6.2857141494750977 7
      vertex 8 6 7
      vertex 8.5 6.5 7
    endloop
  endfacet
  facet normal 0 0 -1
    outer loop
      vertex 8.5 7 7
      vertex 8.5 6.5 7
      vertex 8 6.6666665077209473 7
    endloop
  endfacet
  facet normal 0 -0 -1
    outer loop
      vertex 10.399999618530273 6 7
      vertex 9.6000003814697266 6 7
      vertex 9.142857551574707 6.2857141494750977 7
    endloop
  endfacet
  facet normal 0 -0 -1
    outer loop
      vertex 11.428571701049805 6.2857141494750977 7
      vertex 11.199999809265137 6 7
      vertex 10.399999618530273 6 7
    endloop
  endfacet
  facet normal -0 0 -1
    outer loop
      vertex 11.428571701049805 6.2857141494750977 7
      vertex 12 6 7
      vertex 11.199999809265137 6 7
    endloop
  endfacet
  facet normal -0 -0 -1
    outer loop
      vertex 11.428571701049805 6.2857141494750977 7
      vertex 10.05555534362793 6.5 7
      vertex 10.833333015441895 6.5 7
    endloop
  endfacet
  facet normal 0 0 -1
    outer loop
      vertex 10.833333015441895 6.5 7
      vertex 11.611110687255859 6.5 7
      vertex 11.428571701049805 6.2857141494750977 7
    endloop
  endfacet
  facet normal -0 0 -1
    outer loop
      vertex 12.388889312744141 6.5 7
      vertex 12.571428298950195 6.2857141494750977 7
      vertex 11.428571701049805 6.2857141494750977 7
    endloop
  endfacet
  facet normal 0 -0 -1
    outer loop
      vertex 12.388889312744141 6.5 7
      vertex 11.428571701049805 6.2857141494750977 7
      vertex 11.611110687255859 6.5 7
    endloop
  endfacet
  facet normal -0 0 -1
    outer loop
      vertex 10.05555534362793 6.5 7
      vertex 11.428571701049805 6.2857141494750977 7
      vertex 9.142857551574707 6.2857141494750977 7
    endloop
  endfacet
  facet normal 0 -0 -1
    outer loop
      vertex 10.399999618530273 6 7
      vertex 9.142857551574707 6.2857141494750977 7
      vertex 11.428571701049805 6.2857141494750977 7
    endloop
  endfacet
  facet normal 0 0 -1
    outer loop
      vertex 8.5 7.5 7
      vertex 8.5 7 7
      vertex 8 7.3333334922790527 7
    endloop
  endfacet
  facet normal -0 0 -1
    outer loop
      vertex 8 6.6666665077209473 7
      vertex 8 7.3333334922790527 7
      vertex 8.5 7 7
    endloop
  endfacet
  facet normal 0 0 -1
    outer loop
      vertex 8 8 7
      vertex 8.5 7.5 7
      vertex 8 7.3333334922790527 7
    endloop
  endfacet
  facet normal -0 -0 -1
    outer loop
      vertex 9.142857551574707 7.7142858505249023 7
      vertex 8 8 7
      vertex 8.8000001907348633 8 7
    endloop
  endfacet
  facet normal 0 -0 -1
    outer loop
      vertex 10.05555534362793 7.5 7
      vertex 9.2777776718139648 7.5 7
      vertex 9.142857551574707 7.7142858505249023 7
    endloop
  endfacet
  facet normal 0 -0 -1
    outer loop
      vertex 8.5 7.5 7
      vertex 8 8 7
      vertex 9.142857551574707 7.7142858505249023 7
    endloop
  endfacet
  facet normal -0 0 -1
    outer loop
      vertex 9.142857551574707 7.7142858505249023 7
      vertex 9.2777776718139648 7.5 7
      vertex 8.5 7.5 7
    endloop
  endfacet
  facet normal 0 -0 -1
    outer loop
      vertex 9.6000003814697266 8 7
      vertex 9.142857551574707 7.7142858505249023 7
      vertex 8.8000001907348633 8 7
    endloop
  endfacet
  facet normal 0 -0 -1
    outer loop
      vertex 11.428571701049805 7.7142858505249023 7
      vertex 10.833333015441895 7.5 7
      vertex 10.05555534362793 7.5 7
    endloop
  endfacet
  facet normal -0 -0 -1
    outer loop
      vertex 12.571428298950195 7.7142858505249023 7
      vertex 11.428571701049805 7.7142858505249023 7
      vertex 12 8 7
    endloop
  endfacet
  facet normal -0 0 -1
    outer loop
      vertex 10.833333015441895 7.5 7
      vertex 11.428571701049805 7.7142858505249023 7
      vertex 11.611110687255859 7.5 7
    endloop
  endfacet
  facet normal -0 0 -1
    outer loop
      vertex 9.142857551574707 7.7142858505249023 7
      vertex 9.6000003814697266 8 7
      vertex 10.399999618530273 8 7
    endloop
  endfacet
  facet normal -0 0 -1
    outer loop
      vertex 9.142857551574707 7.7142858505249023 7
      vertex 10.399999618530273 8 7
      vertex 11.428571701049805 7.7142858505249023 7
    endloop
  endfacet
  facet normal 0 -0 -1
    outer loop
      vertex 11.428571701049805 7.7142858505249023 7
      vertex 11.199999809265137 8 7
      vertex 12 8 7
    endloop
  endfacet
  facet normal 0 0 -1
    outer loop
      vertex 11.199999809265137 8 7
      vertex 11.428571701049805 7.7142858505249023 7
      vertex 10.399999618530273 8 7
    endloop
  endfacet
  facet normal 0 -0 -1
    outer loop
      vertex 11.611110687255859 7.5 7
      vertex 11.428571701049805 7.7142858505249023 7
      vertex 12.571428298950195 7.7142858505249023 7
    endloop
  endfacet
  facet normal 0 0 -1
    outer loop
      vertex 11.611110687255859 7.5 7
      vertex 12.571428298950195 7.7142858505249023 7
      vertex 12.388889312744141 7.5 7
    endloop
  endfacet
  facet normal 0 -0 -1
    outer loop
      vertex 11.428571701049805 7.7142858505249023 7
      vertex 10.05555534362793 7.5 7
      vertex 9.142857551574707 7.7142858505249023 7
    endloop
  endfacet
  facet normal 0 -0 -1
    outer loop
      vertex 12 6 7
      vertex 11.428571701049805 6.2857141494750977 7
      vertex 12.571428298950195 6.2857141494750977 7
    endloop
  endfacet
  facet normal 0 -0 -1
    outer loop
      vertex 13.714285850524902 6.2857141494750977 7
      vertex 13.600000381469727 6 7
      vertex 12.800000190734863 6 7
    endloop
  endfacet
  facet normal 0 -0 -1
    outer loop
      vertex 13.714285850524902 6.2857141494750977 7
      vertex 12.800000190734863 6 7
      vertex 12.571428298950195 6.2857141494750977 7
    endloop
  endfacet
  facet normal 0 -0 -1
    outer loop
      vertex 13.166666984558105 6.5 7
      vertex 12.571428298950195 6.2857141494750977 7
      vertex 12.388889312744141 6.5 7
    endloop
  endfacet
  facet normal 0 0 -1
    outer loop
      vertex 13.166666984558105 6.5 7
      vertex 13.94444465637207 6.5 7
      vertex 13.714285850524902 6.2857141494750977 7
    endloop
  endfacet
  facet normal -0 0 -1
    outer loop
      vertex 13.714285850524902 6.2857141494750977 7
      vertex 13.94444465637207 6.5 7
      vertex 14.722222328186035 6.5 7
    endloop
  endfacet
  facet normal -0 0 -1
    outer loop
      vertex 13.714285850524902 6.2857141494750977 7
      vertex 14.722222328186035 6.5 7
      vertex 14.857142448425293 6.2857141494750977 7
    endloop
  endfacet
  facet normal -0 0 -1
    outer loop
      vertex 13.166666984558105 6.5 7
      vertex 13.714285850524902 6.2857141494750977 7
      vertex 12.571428298950195 6.2857141494750977 7
    endloop
  endfacet
  facet normal -0 -0 -1
    outer loop
      vertex 14.399999618530273 6 7
      vertex 13.600000381469727 6 7
      vertex 13.714285850524902 6.2857141494750977 7
    endloop
  endfacet
  facet normal -0 -0 -1
    outer loop
      vertex 12.800000190734863 6 7
      vertex 12 6 7
      vertex 12.571428298950195 6.2857141494750977 7
    endloop
  endfacet
  facet normal -0 0 -1
    outer loop
      vertex 14.857142448425293 6.2857141494750977 7
      vertex 15.199999809265137 6 7
      vertex 14.399999618530273 6 7
    endloop
  endfacet
  facet normal 0 0 -1
    outer loop
      vertex 14.857142448425293 6.2857141494750977 7
      vertex 16 6 7
      vertex 15.199999809265137 6 7
    endloop
  endfacet
  facet normal 0 -0 -1
    outer loop
      vertex 15.5 6.5 7
      vertex 14.857142448425293 6.2857141494750977 7
      vertex 14.722222328186035 6.5 7
    endloop
  endfacet
  facet normal 0 -0 -1
    outer loop
      vertex 15.5 6.5 7
      vertex 15.5 7 7
      vertex 16 6.6666665077209473 7
    endloop
  endfacet
  facet normal -0 -0 -1
    outer loop
      vertex 16 6 7
      vertex 15.5 6.5 7
      vertex 16 6.6666665077209473 7
    endloop
  endfacet
  facet normal 0 0 -1
    outer loop
      vertex 15.5 6.5 7
      vertex 16 6 7
      vertex 14.857142448425293 6.2857141494750977 7
    endloop
  endfacet
  facet normal 0 -0 -1
    outer loop
      vertex 14.399999618530273 6 7
      vertex 13.714285850524902 6.2857141494750977 7
      vertex 14.857142448425293 6.2857141494750977 7
    endloop
  endfacet
  facet normal -0 0 -1
    outer loop
      vertex 12.571428298950195 7.7142858505249023 7
      vertex 13.166666984558105 7.5 7
      vertex 12.388889312744141 7.5 7
    endloop
  endfacet
  facet normal -0 0 -1
    outer loop
      vertex 13.714285850524902 7.7142858505249023 7
      vertex 13.94444465637207 7.5 7
      vertex 13.166666984558105 7.5 7
    endloop
  endfacet
  facet normal 0 -0 -1
    outer loop
      vertex 12.571428298950195 7.7142858505249023 7
      vertex 12 8 7
      vertex 12.800000190734863 8 7
    endloop
  endfacet
  facet normal -0 0 -1
    outer loop
      vertex 12.571428298950195 7.7142858505249023 7
      vertex 12.800000190734863 8 7
      vertex 13.600000381469727 8 7
    endloop
  endfacet
  facet normal -0 0 -1
    outer loop
      vertex 12.571428298950195 7.7142858505249023 7
      vertex 13.600000381469727 8 7
      vertex 13.714285850524902 7.7142858505249023 7
    endloop
  endfacet
  facet normal 0 -0 -1
    outer loop
      vertex 13.714285850524902 7.7142858505249023 7
      vertex 13.600000381469727 8 7
      vertex 14.399999618530273 8 7
    endloop
  endfacet
  facet normal 0 -0 -1
    outer loop
      vertex 13.714285850524902 7.7142858505249023 7
      vertex 13.166666984558105 7.5 7
      vertex 12.571428298950195 7.7142858505249023 7
    endloop
  endfacet
  facet normal 0 -0 -1
    outer loop
      vertex 14.857142448425293 7.7142858505249023 7
      vertex 14.722222328186035 7.5 7
      vertex 13.94444465637207 7.5 7
    endloop
  endfacet
  facet normal 0 -0 -1
    outer loop
      vertex 14.857142448425293 7.7142858505249023 7
      vertex 13.94444465637207 7.5 7
      vertex 13.714285850524902 7.7142858505249023 7
    endloop
  endfacet
  facet normal 0 0 -1
    outer loop
      vertex 15.5 7.5 7
      vertex 16 7.3333334922790527 7
      vertex 15.5 7 7
    endloop
  endfacet
  facet normal 0 -0 -1
    outer loop
      vertex 16 8 7
      vertex 16 7.3333334922790527 7
      vertex 15.5 7.5 7
    endloop
  endfacet
  facet normal 0 -0 -1
    outer loop
      vertex 16 7.3333334922790527 7
      vertex 16 6.6666665077209473 7
      vertex 15.5 7 7
    endloop
  endfacet
  facet normal -0 0 -1
    outer loop
      vertex 14.857142448425293 7.7142858505249023 7
      vertex 15.5 7.5 7
      vertex 14.722222328186035 7.5 7
    endloop
  endfacet
  facet normal 0 -0 -1
    outer loop
      vertex 15.199999809265137 8 7
      vertex 14.857142448425293 7.7142858505249023 7
      vertex 14.399999618530273 8 7
    endloop
  endfacet
  facet normal -0 -0 -1
    outer loop
      vertex 14.857142448425293 7.7142858505249023 7
      vertex 13.714285850524902 7.7142858505249023 7
      vertex 14.399999618530273 8 7
    endloop
  endfacet
  facet normal -0 0 -1
    outer loop
      vertex 14.857142448425293 7.7142858505249023 7
      vertex 15.199999809265137 8 7
      vertex 16 8 7
    endloop
  endfacet
  facet normal 0 -0 -1
    outer loop
      vertex 16 8 7
      vertex 15.5 7.5 7
      vertex 14.857142448425293 7.7142858505249023 7
    endloop
  endfacet
  facet normal 0 1 -0
    outer loop
      vertex 14 6 5.25
      vertex 14 6 3.5
      vertex 12 6 3.5
    endloop
  endfacet
  facet normal 0 1 0
    outer loop
      vertex 14 6 5.25
      vertex 12 6 3.5
      vertex 12 6 5.25
    endloop
  endfacet
  facet normal 0 1 -0
    outer loop
      vertex 12 6 5.25
      vertex 12 6 3.5
      vertex 10 6 3.5
    endloop
  endfacet
  facet normal 0 1 0
    outer loop
      vertex 12 6 5.25
      vertex 10 6 3.5
      vertex 10 6 5.25
    endloop
  endfacet
  facet normal 0 1 0
    outer loop
      vertex 8 6 3.5
      vertex 10 6 3.5
      vertex 10 6 -1.1102230246251565e-16
    endloop
  endfacet
  facet normal -0 1 0
    outer loop
      vertex 8 6 3.5
      vertex 10 6 -1.1102230246251565e-16
      vertex 8 6 -1.1102230246251565e-16
    endloop
  endfacet
  facet normal -0 1 -0
    outer loop
      vertex 12 6 -1.1102230246251565e-16
      vertex 10 6 -1.1102230246251565e-16
      vertex 10 6 3.5
    endloop
  endfacet
  facet normal 0 1 0
    outer loop
      vertex 12 6 -1.1102230246251565e-16
      vertex 10 6 3.5
      vertex 12 6 3.5
    endloop
  endfacet
  facet normal 0 1 0
    outer loop
      vertex 12 6 3.5
      vertex 14 6 3.5
      vertex 14 6 -1.1102230246251565e-16
    endloop
  endfacet
  facet normal -0 1 0
    outer loop
      vertex 12 6 3.5
      vertex 14 6 -1.1102230246251565e-16
      vertex 12 6 -1.1102230246251565e-16
    endloop
  endfacet
  facet normal 0 1 -0
    outer loop
      vertex 10 6 5.25
      vertex 10 6 3.5
      vertex 8 6 3.5
    endloop
  endfacet
  facet normal 0 1 0
    outer loop
      vertex 10 6 5.25
      vertex 8 6 7
      vertex 8.8000001907348633 6 7
    endloop
  endfacet
  facet normal 0 1 0
    outer loop
      vertex 10 6 5.25
      vertex 8.8000001907348633 6 7
      vertex 9.6000003814697266 6 7
    endloop
  endfacet
  facet normal 0 1 0
    outer loop
      vertex 10.399999618530273 6 7
      vertex 11.199999809265137 6 7
      vertex 10 6 5.25
    endloop
  endfacet
  facet normal 0 1 -0
    outer loop
      vertex 10 6 5.25
      vertex 11.199999809265137 6 7
      vertex 12 6 5.25
    endloop
  endfacet
  facet normal 0 1 0
    outer loop
      vertex 9.6000003814697266 6 7
      vertex 10.399999618530273 6 7
      vertex 10 6 5.25
    endloop
  endfacet
  facet normal -0 1 -0
    outer loop
      vertex 10 6 5.25
      vertex 8 6 3.5
      vertex 8 6 7
    endloop
  endfacet
  facet normal 0 1 0
    outer loop
      vertex 14 6 3.5
      vertex 16 6 3.5
      vertex 16 6 -1.1102230246251565e-16
    endloop
  endfacet
  facet normal -0 1 0
    outer loop
      vertex 14 6 3.5
      vertex 16 6 -1.1102230246251565e-16
      vertex 14 6 -1.1102230246251565e-16
    endloop
  endfacet
  facet normal -0 1 -0
    outer loop
      vertex 14 6 5.25
      vertex 16 6 3.5
      vertex 14 6 3.5
    endloop
  endfacet
  facet normal -0 1 0
    outer loop
      vertex 16 6 7
      vertex 16 6 3.5
      vertex 14 6 5.25
    endloop
  endfacet
  facet normal 0 1 -0
    outer loop
      vertex 12 6 5.25
      vertex 12.800000190734863 6 7
      vertex 13.600000381469727 6 7
    endloop
  endfacet
  facet normal 0 1 -0
    outer loop
      vertex 12 6 5.25
      vertex 13.600000381469727 6 7
      vertex 14 6 5.25
    endloop
  endfacet
  facet normal 0 1 -0
    outer loop
      vertex 12 6 5.25
      vertex 12 6 7
      vertex 12.800000190734863 6 7
    endloop
  endfacet
  facet normal 0 1 -0
    outer loop
      vertex 14 6 5.25
      vertex 14.399999618530273 6 7
      vertex 15.199999809265137 6 7
    endloop
  endfacet
  facet normal 0 1 -0
    outer loop
      vertex 14 6 5.25
      vertex 15.199999809265137 6 7
      vertex 16 6 7
    endloop
  endfacet
  facet normal -0 1 0
    outer loop
      vertex 14.399999618530273 6 7
      vertex 14 6 5.25
      vertex 13.600000381469727 6 7
    endloop
  endfacet
  facet normal 0 1 0
    outer loop
      vertex 11.199999809265137 6 7
      vertex 12 6 7
      vertex 12 6 5.25
    endloop
  endfacet
  facet normal -1 0 -0
    outer loop
      vertex 16 7.5 5.25
      vertex 16 7.5 3.5
      vertex 16 7 3.5
    endloop
  endfacet
  facet normal -1 0 -0
    outer loop
      vertex 16 7.5 5.25
      vertex 16 7 3.5
      vertex 16 7 5.25
    endloop
  endfacet
  facet normal -1 0 -0
    outer loop
      vertex 16 7 5.25
      vertex 16 7 3.5
      vertex 16 6.5 3.5
    endloop
  endfacet
  facet normal -1 0 -0
    outer loop
      vertex 16 7 5.25
      vertex 16 6.5 3.5
      vertex 16 6.5 5.25
    endloop
  endfacet
  facet normal -1 -0 0
    outer loop
      vertex 16 6 3.5
      vertex 16 6.5 3.5
      vertex 16 6 -1.1102230246251565e-16
    endloop
  endfacet
  facet normal -1 0 -0
    outer loop
      vertex 16 7 3.5
      vertex 16 6 -1.1102230246251565e-16
      vertex 16 6.5 3.5
    endloop
  endfacet
  facet normal -1 0 -0
    outer loop
      vertex 16 6.5 5.25
      vertex 16 6.5 3.5
      vertex 16 6 3.5
    endloop
  endfacet
  facet normal -1 0 -0
    outer loop
      vertex 16 6.6666665077209473 7
      vertex 16 6.5 5.25
      vertex 16 6 7
    endloop
  endfacet
  facet normal -1 0 0
    outer loop
      vertex 16 6.5 5.25
      vertex 16 6 3.5
      vertex 16 6 7
    endloop
  endfacet
  facet normal -1 0 0
    outer loop
      vertex 16 6.6666665077209473 7
      vertex 16 7 5.25
      vertex 16 6.5 5.25
    endloop
  endfacet
  facet normal -1 0 0
    outer loop
      vertex 16 7 3.5
      vertex 16 8 -1.1102230246251565e-16
      vertex 16 6 -1.1102230246251565e-16
    endloop
  endfacet
  facet normal -1 0 -0
    outer loop
      vertex 16 8 3.5
      vertex 16 8 -1.1102230246251565e-16
      vertex 16 7.5 3.5
    endloop
  endfacet
  facet normal -1 0 0
    outer loop
      vertex 16 7.5 5.25
      vertex 16 8 3.5
      vertex 16 7.5 3.5
    endloop
  endfacet
  facet normal -1 -0 0
    outer loop
      vertex 16 6.6666665077209473 7
      vertex 16 7.3333334922790527 7
      vertex 16 7 5.25
    endloop
  endfacet
  facet normal -1 0 0
    outer loop
      vertex 16 7.5 5.25
      vertex 16 7 5.25
      vertex 16 7.3333334922790527 7
    endloop
  endfacet
  facet normal -1 -0 0
    outer loop
      vertex 16 7.3333334922790527 7
      vertex 16 8 7
      vertex 16 7.5 5.25
    endloop
  endfacet
  facet normal -1 -0 -0
    outer loop
      vertex 16 8 3.5
      vertex 16 7.5 5.25
      vertex 16 8 7
    endloop
  endfacet
  facet normal -1 -0 0
    outer loop
      vertex 16 8 -1.1102230246251565e-16
      vertex 16 7 3.5
      vertex 16 7.5 3.5
    endloop
  endfacet
  facet normal 0 -1 0
    outer loop
      vertex 10 8 5.25
      vertex 10 8 3.5
      vertex 12 8 3.5
    endloop
  endfacet
  facet normal 0 -1 -0
    outer loop
      vertex 10 8 5.25
      vertex 12 8 3.5
      vertex 12 8 5.25
    endloop
  endfacet
  facet normal 0 -1 0
    outer loop
      vertex 12 8 5.25
      vertex 12 8 3.5
      vertex 14 8 3.5
    endloop
  endfacet
  facet normal 0 -1 -0
    outer loop
      vertex 12 8 5.25
      vertex 14 8 3.5
      vertex 14 8 5.25
    endloop
  endfacet
  facet normal 0 -1 -0
    outer loop
      vertex 16 8 3.5
      vertex 14 8 3.5
      vertex 14 8 -1.1102230246251565e-16
    endloop
  endfacet
  facet normal -0 -1 0
    outer loop
      vertex 16 8 3.5
      vertex 14 8 -1.1102230246251565e-16
      vertex 16 8 -1.1102230246251565e-16
    endloop
  endfacet
  facet normal -0 -1 0
    outer loop
      vertex 12 8 -1.1102230246251565e-16
      vertex 14 8 -1.1102230246251565e-16
      vertex 14 8 3.5
    endloop
  endfacet
  facet normal 0 -1 0
    outer loop
      vertex 12 8 -1.1102230246251565e-16
      vertex 14 8 3.5
      vertex 12 8 3.5
    endloop
  endfacet
  facet normal 0 -1 -0
    outer loop
      vertex 12 8 3.5
      vertex 10 8 3.5
      vertex 10 8 -1.1102230246251565e-16
    endloop
  endfacet
  facet normal -0 -1 0
    outer loop
      vertex 12 8 3.5
      vertex 10 8 -1.1102230246251565e-16
      vertex 12 8 -1.1102230246251565e-16
    endloop
  endfacet
  facet normal 0 -1 0
    outer loop
      vertex 14 8 5.25
      vertex 14 8 3.5
      vertex 16 8 3.5
    endloop
  endfacet
  facet normal 0 -1 -0
    outer loop
      vertex 14 8 5.25
      vertex 16 8 7
      vertex 15.199999809265137 8 7
    endloop
  endfacet
  facet normal 0 -1 0
    outer loop
      vertex 14 8 5.25
      vertex 15.199999809265137 8 7
      vertex 14.399999618530273 8 7
    endloop
  endfacet
  facet normal 0 -1 0
    outer loop
      vertex 13.600000381469727 8 7
      vertex 12.800000190734863 8 7
      vertex 14 8 5.25
    endloop
  endfacet
  facet normal 0 -1 0
    outer loop
      vertex 14 8 5.25
      vertex 12.800000190734863 8 7
      vertex 12 8 5.25
    endloop
  endfacet
  facet normal 0 -1 0
    outer loop
      vertex 14.399999618530273 8 7
      vertex 13.600000381469727 8 7
      vertex 14 8 5.25
    endloop
  endfacet
  facet normal -0 -1 0
    outer loop
      vertex 14 8 5.25
      vertex 16 8 3.5
      vertex 16 8 7
    endloop
  endfacet
  facet normal 0 -1 -0
    outer loop
      vertex 10 8 3.5
      vertex 8 8 3.5
      vertex 8 8 -1.1102230246251565e-16
    endloop
  endfacet
  facet normal -0 -1 0
    outer loop
      vertex 10 8 3.5
      vertex 8 8 -1.1102230246251565e-16
      vertex 10 8 -1.1102230246251565e-16
    endloop
  endfacet
  facet normal -0 -1 0
    outer loop
      vertex 10 8 5.25
      vertex 8 8 3.5
      vertex 10 8 3.5
    endloop
  endfacet
  facet normal -0 -1 -0
    outer loop
      vertex 8 8 7
      vertex 8 8 3.5
      vertex 10 8 5.25
    endloop
  endfacet
  facet normal 0 -1 0
    outer loop
      vertex 12 8 5.25
      vertex 11.199999809265137 8 7
      vertex 10.399999618530273 8 7
    endloop
  endfacet
  facet normal 0 -1 0
    outer loop
      vertex 12 8 5.25
      vertex 10.399999618530273 8 7
      vertex 10 8 5.25
    endloop
  endfacet
  facet normal 0 -1 0
    outer loop
      vertex 12 8 5.25
      vertex 12 8 7
      vertex 11.199999809265137 8 7
    endloop
  endfacet
  facet normal 0 -1 0
    outer loop
      vertex 10 8 5.25
      vertex 9.6000003814697266 8 7
      vertex 8.8000001907348633 8 7
    endloop
  endfacet
  facet normal 0 -1 0
    outer loop
      vertex 10 8 5.25
      vertex 8.8000001907348633 8 7
      vertex 8 8 7
    endloop
  endfacet
  facet normal -0 -1 -0
    outer loop
      vertex 9.6000003814697266 8 7
      vertex 10 8 5.25
      vertex 10.399999618530273 8 7
    endloop
  endfacet
  facet normal 0 -1 -0
    outer loop
      vertex 12.800000190734863 8 7
      vertex 12 8 7
      vertex 12 8 5.25
    endloop
  endfacet
  facet normal 1 0 0
    outer loop
      vertex 8 6.5 5.25
      vertex 8 6.5 3.5
      vertex 8 7 3.5
    endloop
  endfacet
  facet normal 1 0 0
    outer loop
      vertex 8 6.5 5.25
      vertex 8 7 3.5
      vertex 8 7 5.25
    endloop
  endfacet
  facet normal 1 0 0
    outer loop
      vertex 8 7 5.25
      vertex 8 7 3.5
      vertex 8 7.5 3.5
    endloop
  endfacet
  facet normal 1 0 0
    outer loop
      vertex 8 7 5.25
      vertex 8 7.5 3.5
      vertex 8 7.5 5.25
    endloop
  endfacet
  facet normal 1 -0 0
    outer loop
      vertex 8 8 3.5
      vertex 8 7.5 3.5
      vertex 8 8 -1.1102230246251565e-16
    endloop
  endfacet
  facet normal 1 0 0
    outer loop
      vertex 8 7 3.5
      vertex 8 8 -1.1102230246251565e-16
      vertex 8 7.5 3.5
    endloop
  endfacet
  facet normal 1 0 0
    outer loop
      vertex 8 7.5 5.25
      vertex 8 7.5 3.5
      vertex 8 8 3.5
    endloop
  endfacet
  facet normal 1 0 0
    outer loop
      vertex 8 7.3333334922790527 7
      vertex 8 7.5 5.25
      vertex 8 8 7
    endloop
  endfacet
  facet normal 1 0 -0
    outer loop
      vertex 8 7.5 5.25
      vertex 8 8 3.5
      vertex 8 8 7
    endloop
  endfacet
  facet normal 1 0 0
    outer loop
      vertex 8 7.3333334922790527 7
      vertex 8 7 5.25
      vertex 8 7.5 5.25
    endloop
  endfacet
  facet normal 1 0 0
    outer loop
      vertex 8 7 3.5
      vertex 8 6 -1.1102230246251565e-16
      vertex 8 8 -1.1102230246251565e-16
    endloop
  endfacet
  facet normal 1 0 0
    outer loop
      vertex 8 6 3.5
      vertex 8 6 -1.1102230246251565e-16
      vertex 8 6.5 3.5
    endloop
  endfacet
  facet normal 1 0 0
    outer loop
      vertex 8 6.5 5.25
      vertex 8 6 3.5
      vertex 8 6.5 3.5
    endloop
  endfacet
  facet normal 1 -0 0
    outer loop
      vertex 8 7.3333334922790527 7
      vertex 8 6.6666665077209473 7
      vertex 8 7 5.25
    endloop
  endfacet
  facet normal 1 0 0
    outer loop
      vertex 8 6.5 5.25
      vertex 8 7 5.25
      vertex 8 6.6666665077209473 7
    endloop
  endfacet
  facet normal 1 -0 0
    outer loop
      vertex 8 6.6666665077209473 7
      vertex 8 6 7
      vertex 8 6.5 5.25
    endloop
  endfacet
  facet normal 1 -0 0
    outer loop
      vertex 8 6 3.5
      vertex 8 6.5 5.25
      vertex 8 6 7
    endloop
  endfacet
  facet normal 1 -0 0
    outer loop
      vertex 8 6 -1.1102230246251565e-16
      vertex 8 7 3.5
      vertex 8 6.5 3.5
    endloop
  endfacet
endsolid OBJECT
